<?xml version="1.0" encoding="UTF-8" standalone="no"?>
<!-- Created with Inkscape (http://www.inkscape.org/) -->

<svg
   width="210mm"
   height="297mm"
   viewBox="0 0 210 297"
   version="1.1"
   id="svg1"
   xml:space="preserve"
   inkscape:version="1.3 (0e150ed6c4, 2023-07-21)"
   sodipodi:docname="background-stars.svg"
   xmlns:inkscape="http://www.inkscape.org/namespaces/inkscape"
   xmlns:sodipodi="http://sodipodi.sourceforge.net/DTD/sodipodi-0.dtd"
   xmlns="http://www.w3.org/2000/svg"
   xmlns:svg="http://www.w3.org/2000/svg"><sodipodi:namedview
     id="namedview1"
     pagecolor="#ffffff"
     bordercolor="#000000"
     borderopacity="0.25"
     inkscape:showpageshadow="2"
     inkscape:pageopacity="0.0"
     inkscape:pagecheckerboard="0"
     inkscape:deskcolor="#d1d1d1"
     inkscape:document-units="mm"
     inkscape:zoom="0.51213161"
     inkscape:cx="129.84943"
     inkscape:cy="594.57373"
     inkscape:window-width="1920"
     inkscape:window-height="1009"
     inkscape:window-x="-8"
     inkscape:window-y="-8"
     inkscape:window-maximized="1"
     inkscape:current-layer="svg1"
     showguides="false" /><defs
     id="defs1"><inkscape:path-effect
       effect="spiro"
       id="path-effect7"
       is_visible="true"
       lpeversion="1" /><inkscape:path-effect
       effect="bspline"
       id="path-effect5"
       is_visible="true"
       lpeversion="1.3"
       weight="33.333333"
       steps="2"
       helper_size="0"
       apply_no_weight="true"
       apply_with_weight="true"
       only_selected="false"
       uniform="false" /><inkscape:path-effect
       effect="spiro"
       id="path-effect4"
       is_visible="true"
       lpeversion="1" /><inkscape:path-effect
       effect="bspline"
       id="path-effect3"
       is_visible="true"
       lpeversion="1.3"
       weight="33.333333"
       steps="2"
       helper_size="0"
       apply_no_weight="true"
       apply_with_weight="true"
       only_selected="false"
       uniform="false" /></defs><g
     inkscape:label="Layer 1"
     inkscape:groupmode="layer"
     id="layer1"
     style="display:inline"><g
       inkscape:groupmode="layer"
       id="layer2"
       inkscape:label="Stars"><path
         sodipodi:type="star"
         style="display:inline;fill:#decd87;fill-opacity:1;stroke-width:0.264583"
         id="path2-3-9-8"
         inkscape:flatsided="false"
         sodipodi:sides="4"
         sodipodi:cx="37.261993"
         sodipodi:cy="32.147602"
         sodipodi:r1="5.0882306"
         sodipodi:r2="2.5441153"
         sodipodi:arg1="1.2036225"
         sodipodi:arg2="1.9890207"
         inkscape:rounded="0"
         inkscape:randomized="0"
         d="m 39.088562,36.89668 -2.859832,-2.424236 -3.715814,-0.498274 2.424236,-2.859831 0.498273,-3.715815 2.859832,2.424236 3.715814,0.498274 -2.424236,2.859831 z"
         inkscape:transform-center-x="-0.10929724"
         inkscape:transform-center-y="-0.022431692"
         transform="matrix(0.26923079,0,0,0.26923079,82.471173,58.591781)"
         inkscape:label="fs2" /><path
         sodipodi:type="star"
         style="display:inline;fill:#decd87;fill-opacity:1;stroke-width:0.264583"
         id="path2-3-9-5"
         inkscape:flatsided="false"
         sodipodi:sides="4"
         sodipodi:cx="37.261993"
         sodipodi:cy="32.147602"
         sodipodi:r1="5.0882306"
         sodipodi:r2="2.5441153"
         sodipodi:arg1="1.2036225"
         sodipodi:arg2="1.9890207"
         inkscape:rounded="0"
         inkscape:randomized="0"
         d="m 39.088562,36.89668 -2.859832,-2.424236 -3.715814,-0.498274 2.424236,-2.859831 0.498273,-3.715815 2.859832,2.424236 3.715814,0.498274 -2.424236,2.859831 z"
         inkscape:transform-center-x="-0.10929724"
         inkscape:transform-center-y="-0.022431692"
         transform="matrix(0.26923079,0,0,0.26923079,148.98522,57.87204)"
         inkscape:label="fs2" /><path
         sodipodi:type="star"
         style="display:inline;fill:#decd87;fill-opacity:1;stroke-width:0.264583"
         id="path2-15"
         inkscape:flatsided="false"
         sodipodi:sides="4"
         sodipodi:cx="37.261993"
         sodipodi:cy="32.147602"
         sodipodi:r1="5.0882306"
         sodipodi:r2="0.86499918"
         sodipodi:arg1="1.2036225"
         sodipodi:arg2="1.9890207"
         inkscape:rounded="0.03"
         inkscape:randomized="0"
         d="m 39.088562,36.89668 c -0.126511,0.04866 -2.054015,-3.903582 -2.177878,-3.958632 -0.123863,-0.05505 -4.34911,1.162633 -4.397768,1.036122 -0.04866,-0.12651 3.903581,-2.054015 3.958631,-2.177877 0.05505,-0.123863 -1.162632,-4.349111 -1.036122,-4.397769 0.126511,-0.04866 2.054015,3.903582 2.177878,3.958632 0.123863,0.05505 4.34911,-1.162633 4.397768,-1.036122 0.04866,0.12651 -3.903581,2.054015 -3.958631,2.177878 -0.05505,0.123862 1.162632,4.34911 1.036122,4.397768 z"
         inkscape:transform-center-x="-0.0448896"
         inkscape:transform-center-y="0.23433868"
         transform="matrix(0,0.57724429,-0.53877911,0,99.518983,204.5407)"
         inkscape:label="fs1" /><path
         sodipodi:type="star"
         style="display:inline;fill:#decd87;fill-opacity:1;stroke-width:0.264583"
         id="path2-79"
         inkscape:flatsided="false"
         sodipodi:sides="4"
         sodipodi:cx="37.261993"
         sodipodi:cy="32.147602"
         sodipodi:r1="5.0882306"
         sodipodi:r2="0.86499918"
         sodipodi:arg1="1.2036225"
         sodipodi:arg2="1.9890207"
         inkscape:rounded="0.03"
         inkscape:randomized="0"
         d="m 39.088562,36.89668 c -0.126511,0.04866 -2.054015,-3.903582 -2.177878,-3.958632 -0.123863,-0.05505 -4.34911,1.162633 -4.397768,1.036122 -0.04866,-0.12651 3.903581,-2.054015 3.958631,-2.177877 0.05505,-0.123863 -1.162632,-4.349111 -1.036122,-4.397769 0.126511,-0.04866 2.054015,3.903582 2.177878,3.958632 0.123863,0.05505 4.34911,-1.162633 4.397768,-1.036122 0.04866,0.12651 -3.903581,2.054015 -3.958631,2.177878 -0.05505,0.123862 1.162632,4.34911 1.036122,4.397768 z"
         inkscape:transform-center-x="-0.0448896"
         inkscape:transform-center-y="0.23433868"
         transform="matrix(0,0.57724429,-0.53877911,0,70.942528,168.42846)"
         inkscape:label="fs1" /><path
         sodipodi:type="star"
         style="display:inline;fill:#decd87;fill-opacity:1;stroke-width:0.264583"
         id="path2-4"
         inkscape:flatsided="false"
         sodipodi:sides="4"
         sodipodi:cx="37.261993"
         sodipodi:cy="32.147602"
         sodipodi:r1="5.0882306"
         sodipodi:r2="0.86499918"
         sodipodi:arg1="1.2036225"
         sodipodi:arg2="1.9890207"
         inkscape:rounded="0.03"
         inkscape:randomized="0"
         d="m 39.088562,36.89668 c -0.126511,0.04866 -2.054015,-3.903582 -2.177878,-3.958632 -0.123863,-0.05505 -4.34911,1.162633 -4.397768,1.036122 -0.04866,-0.12651 3.903581,-2.054015 3.958631,-2.177877 0.05505,-0.123863 -1.162632,-4.349111 -1.036122,-4.397769 0.126511,-0.04866 2.054015,3.903582 2.177878,3.958632 0.123863,0.05505 4.34911,-1.162633 4.397768,-1.036122 0.04866,0.12651 -3.903581,2.054015 -3.958631,2.177878 -0.05505,0.123862 1.162632,4.34911 1.036122,4.397768 z"
         inkscape:transform-center-x="-0.0448896"
         inkscape:transform-center-y="0.23433868"
         transform="matrix(0,0.57724429,-0.53877911,0,205.15763,150.67719)"
         inkscape:label="fs1" /><path
         sodipodi:type="star"
         style="display:inline;fill:#decd87;fill-opacity:1;stroke-width:0.264583"
         id="path2-8"
         inkscape:flatsided="false"
         sodipodi:sides="4"
         sodipodi:cx="37.261993"
         sodipodi:cy="32.147602"
         sodipodi:r1="5.0882306"
         sodipodi:r2="0.86499918"
         sodipodi:arg1="1.2036225"
         sodipodi:arg2="1.9890207"
         inkscape:rounded="0.03"
         inkscape:randomized="0"
         d="m 39.088562,36.89668 c -0.126511,0.04866 -2.054015,-3.903582 -2.177878,-3.958632 -0.123863,-0.05505 -4.34911,1.162633 -4.397768,1.036122 -0.04866,-0.12651 3.903581,-2.054015 3.958631,-2.177877 0.05505,-0.123863 -1.162632,-4.349111 -1.036122,-4.397769 0.126511,-0.04866 2.054015,3.903582 2.177878,3.958632 0.123863,0.05505 4.34911,-1.162633 4.397768,-1.036122 0.04866,0.12651 -3.903581,2.054015 -3.958631,2.177878 -0.05505,0.123862 1.162632,4.34911 1.036122,4.397768 z"
         inkscape:transform-center-x="-0.0448896"
         inkscape:transform-center-y="0.23433868"
         transform="matrix(0,0.57724429,-0.53877911,0,68.827319,77.540694)"
         inkscape:label="fs1" /><path
         sodipodi:type="star"
         style="display:inline;fill:#decd87;fill-opacity:1;stroke-width:0.264583"
         id="path2-7"
         inkscape:flatsided="false"
         sodipodi:sides="4"
         sodipodi:cx="37.261993"
         sodipodi:cy="32.147602"
         sodipodi:r1="5.0882306"
         sodipodi:r2="0.86499918"
         sodipodi:arg1="1.2036225"
         sodipodi:arg2="1.9890207"
         inkscape:rounded="0.03"
         inkscape:randomized="0"
         d="m 39.088562,36.89668 c -0.126511,0.04866 -2.054015,-3.903582 -2.177878,-3.958632 -0.123863,-0.05505 -4.34911,1.162633 -4.397768,1.036122 -0.04866,-0.12651 3.903581,-2.054015 3.958631,-2.177877 0.05505,-0.123863 -1.162632,-4.349111 -1.036122,-4.397769 0.126511,-0.04866 2.054015,3.903582 2.177878,3.958632 0.123863,0.05505 4.34911,-1.162633 4.397768,-1.036122 0.04866,0.12651 -3.903581,2.054015 -3.958631,2.177878 -0.05505,0.123862 1.162632,4.34911 1.036122,4.397768 z"
         inkscape:transform-center-x="-0.0448896"
         inkscape:transform-center-y="0.23433868"
         transform="matrix(0,0.57724429,-0.53877911,0,75.299446,35.943307)"
         inkscape:label="fs1" /><path
         sodipodi:type="star"
         style="display:inline;fill:#decd87;fill-opacity:1;stroke-width:0.264583"
         id="path2"
         inkscape:flatsided="false"
         sodipodi:sides="4"
         sodipodi:cx="37.261993"
         sodipodi:cy="32.147602"
         sodipodi:r1="5.0882306"
         sodipodi:r2="0.86499918"
         sodipodi:arg1="1.2036225"
         sodipodi:arg2="1.9890207"
         inkscape:rounded="0.03"
         inkscape:randomized="0"
         d="m 39.088562,36.89668 c -0.126511,0.04866 -2.054015,-3.903582 -2.177878,-3.958632 -0.123863,-0.05505 -4.34911,1.162633 -4.397768,1.036122 -0.04866,-0.12651 3.903581,-2.054015 3.958631,-2.177877 0.05505,-0.123863 -1.162632,-4.349111 -1.036122,-4.397769 0.126511,-0.04866 2.054015,3.903582 2.177878,3.958632 0.123863,0.05505 4.34911,-1.162633 4.397768,-1.036122 0.04866,0.12651 -3.903581,2.054015 -3.958631,2.177878 -0.05505,0.123862 1.162632,4.34911 1.036122,4.397768 z"
         inkscape:transform-center-x="-0.0448896"
         inkscape:transform-center-y="0.23433868"
         transform="matrix(0,0.57724429,-0.53877911,0,41.960744,10.214499)"
         inkscape:label="fs1" /><path
         sodipodi:type="star"
         style="display:inline;fill:#decd87;fill-opacity:1;stroke-width:0.264583"
         id="path2-2"
         inkscape:flatsided="false"
         sodipodi:sides="4"
         sodipodi:cx="174.59216"
         sodipodi:cy="-154.99136"
         sodipodi:r1="5.0882306"
         sodipodi:r2="0.86499918"
         sodipodi:arg1="1.2036225"
         sodipodi:arg2="1.9890207"
         inkscape:rounded="0.03"
         inkscape:randomized="0"
         d="m 176.41873,-150.24229 c -0.12651,0.0487 -2.05401,-3.90358 -2.17788,-3.95863 -0.12386,-0.055 -4.34911,1.16264 -4.39776,1.03612 -0.0487,-0.12651 3.90358,-2.05401 3.95863,-2.17787 0.0551,-0.12387 -1.16264,-4.34911 -1.03613,-4.39777 0.12652,-0.0487 2.05402,3.90358 2.17788,3.95863 0.12387,0.055 4.34911,-1.16263 4.39777,-1.03612 0.0487,0.12651 -3.90358,2.05401 -3.95863,2.17788 -0.055,0.12386 1.16263,4.34911 1.03612,4.39776 z"
         inkscape:transform-center-x="-0.0448896"
         inkscape:transform-center-y="0.23433868"
         transform="matrix(0,0.57724429,-0.53877911,0,111.68982,34.413611)"
         inkscape:label="fs1" /><path
         sodipodi:type="star"
         style="display:inline;fill:#decd87;fill-opacity:1;stroke-width:0.264583"
         id="path2-34"
         inkscape:flatsided="false"
         sodipodi:sides="4"
         sodipodi:cx="210.66508"
         sodipodi:cy="159.61906"
         sodipodi:r1="5.0882306"
         sodipodi:r2="0.86499918"
         sodipodi:arg1="1.2036225"
         sodipodi:arg2="1.9890207"
         inkscape:rounded="0.03"
         inkscape:randomized="0"
         d="m 212.49165,164.36814 c -0.12651,0.0487 -2.05401,-3.90358 -2.17787,-3.95863 -0.12387,-0.0551 -4.34911,1.16263 -4.39777,1.03612 -0.0487,-0.12651 3.90358,-2.05401 3.95863,-2.17788 0.055,-0.12386 -1.16263,-4.34911 -1.03612,-4.39776 0.12651,-0.0487 2.05401,3.90358 2.17787,3.95863 0.12387,0.055 4.34911,-1.16263 4.39777,-1.03612 0.0487,0.12651 -3.90358,2.05401 -3.95863,2.17787 -0.0551,0.12387 1.16263,4.34911 1.03612,4.39777 z"
         inkscape:transform-center-x="-0.0448896"
         inkscape:transform-center-y="0.23433868"
         transform="matrix(0,0.57724429,-0.53877911,0,238.00357,98.296336)"
         inkscape:label="fs1" /><path
         sodipodi:type="star"
         style="display:inline;fill:#decd87;fill-opacity:1;stroke-width:0.264583"
         id="path2-9"
         inkscape:flatsided="false"
         sodipodi:sides="4"
         sodipodi:cx="56.247734"
         sodipodi:cy="26.723284"
         sodipodi:r1="5.0882306"
         sodipodi:r2="0.86499918"
         sodipodi:arg1="1.2036225"
         sodipodi:arg2="1.9890207"
         inkscape:rounded="0.03"
         inkscape:randomized="0"
         d="m 58.074302,31.472361 c -0.12651,0.04866 -2.054015,-3.903581 -2.177877,-3.958631 -0.123863,-0.05505 -4.349111,1.162633 -4.397769,1.036122 -0.04866,-0.126511 3.903582,-2.054015 3.958632,-2.177878 0.05505,-0.123863 -1.162633,-4.34911 -1.036122,-4.397768 0.12651,-0.04866 2.054015,3.903581 2.177878,3.958632 0.123862,0.05505 4.34911,-1.162633 4.397768,-1.036123 0.04866,0.126511 -3.903582,2.054015 -3.958632,2.177878 -0.05505,0.123863 1.162633,4.349111 1.036122,4.397768 z"
         inkscape:transform-center-x="-0.0448896"
         inkscape:transform-center-y="0.23433868"
         transform="matrix(0,0.57724429,-0.53877911,0,145.2919,237.8782)"
         inkscape:label="fs1" /><path
         sodipodi:type="star"
         style="display:inline;fill:#decd87;fill-opacity:1;stroke-width:0.264583"
         id="path2-21"
         inkscape:flatsided="false"
         sodipodi:sides="4"
         sodipodi:cx="37.261993"
         sodipodi:cy="32.147602"
         sodipodi:r1="5.0882306"
         sodipodi:r2="0.86499918"
         sodipodi:arg1="1.2036225"
         sodipodi:arg2="1.9890207"
         inkscape:rounded="0.03"
         inkscape:randomized="0"
         d="m 39.088562,36.89668 c -0.126511,0.04866 -2.054015,-3.903582 -2.177878,-3.958632 -0.123863,-0.05505 -4.34911,1.162633 -4.397768,1.036122 -0.04866,-0.12651 3.903581,-2.054015 3.958631,-2.177877 0.05505,-0.123863 -1.162632,-4.349111 -1.036122,-4.397769 0.126511,-0.04866 2.054015,3.903582 2.177878,3.958632 0.123863,0.05505 4.34911,-1.162633 4.397768,-1.036122 0.04866,0.12651 -3.903581,2.054015 -3.958631,2.177878 -0.05505,0.123862 1.162632,4.34911 1.036122,4.397768 z"
         inkscape:transform-center-x="-0.0448896"
         inkscape:transform-center-y="0.23433868"
         transform="matrix(0,0.57724429,-0.53877911,0,177.30648,255.3407)"
         inkscape:label="fs1" /><path
         sodipodi:type="star"
         style="display:inline;fill:#decd87;fill-opacity:1;stroke-width:0.264583"
         id="path2-36"
         inkscape:flatsided="false"
         sodipodi:sides="4"
         sodipodi:cx="-183.60544"
         sodipodi:cy="281.66623"
         sodipodi:r1="5.0882306"
         sodipodi:r2="0.86499918"
         sodipodi:arg1="1.2036225"
         sodipodi:arg2="1.9890207"
         inkscape:rounded="0.03"
         inkscape:randomized="0"
         d="m -181.77887,286.41531 c -0.12651,0.0487 -2.05401,-3.90358 -2.17788,-3.95863 -0.12386,-0.055 -4.34911,1.16263 -4.39777,1.03612 -0.0486,-0.12651 3.90359,-2.05402 3.95864,-2.17788 0.055,-0.12386 -1.16264,-4.34911 -1.03613,-4.39777 0.12651,-0.0487 2.05402,3.90358 2.17788,3.95863 0.12386,0.055 4.34911,-1.16263 4.39777,-1.03612 0.0487,0.12651 -3.90358,2.05402 -3.95863,2.17788 -0.055,0.12386 1.16263,4.34911 1.03612,4.39777 z"
         inkscape:transform-center-x="-0.0448896"
         inkscape:transform-center-y="0.23433868"
         transform="matrix(0,0.57724429,-0.53877911,0,183.12731,255.86986)"
         inkscape:label="fs1" /><path
         sodipodi:type="star"
         style="display:inline;fill:#decd87;fill-opacity:1;stroke-width:0.264583"
         id="path2-1"
         inkscape:flatsided="false"
         sodipodi:sides="4"
         sodipodi:cx="37.261993"
         sodipodi:cy="32.147602"
         sodipodi:r1="5.0882306"
         sodipodi:r2="0.86499918"
         sodipodi:arg1="1.2036225"
         sodipodi:arg2="1.9890207"
         inkscape:rounded="0.03"
         inkscape:randomized="0"
         d="m 39.088562,36.89668 c -0.126511,0.04866 -2.054015,-3.903582 -2.177878,-3.958632 -0.123863,-0.05505 -4.34911,1.162633 -4.397768,1.036122 -0.04866,-0.12651 3.903581,-2.054015 3.958631,-2.177877 0.05505,-0.123863 -1.162632,-4.349111 -1.036122,-4.397769 0.126511,-0.04866 2.054015,3.903582 2.177878,3.958632 0.123863,0.05505 4.34911,-1.162633 4.397768,-1.036122 0.04866,0.12651 -3.903581,2.054015 -3.958631,2.177878 -0.05505,0.123862 1.162632,4.34911 1.036122,4.397768 z"
         inkscape:transform-center-x="-0.0448896"
         inkscape:transform-center-y="0.23433868"
         transform="matrix(0,0.57724429,-0.53877911,0,36.308959,91.853589)"
         inkscape:label="fs1" /><path
         sodipodi:type="star"
         style="display:inline;fill:#decd87;fill-opacity:1;stroke-width:0.264583"
         id="path2-3"
         inkscape:flatsided="false"
         sodipodi:sides="4"
         sodipodi:cx="37.261993"
         sodipodi:cy="32.147602"
         sodipodi:r1="5.0882306"
         sodipodi:r2="2.5441153"
         sodipodi:arg1="1.2036225"
         sodipodi:arg2="1.9890207"
         inkscape:rounded="0"
         inkscape:randomized="0"
         d="m 39.088562,36.89668 -2.859832,-2.424236 -3.715814,-0.498274 2.424236,-2.859831 0.498273,-3.715815 2.859832,2.424236 3.715814,0.498274 -2.424236,2.859831 z"
         inkscape:transform-center-x="-0.10929724"
         inkscape:transform-center-y="-0.022431692"
         transform="matrix(0.26923079,0,0,0.26923079,34.321123,16.117451)"
         inkscape:label="fs2" /><path
         sodipodi:type="star"
         style="display:inline;fill:#decd87;fill-opacity:1;stroke-width:0.264583"
         id="path2-3-0"
         inkscape:flatsided="false"
         sodipodi:sides="4"
         sodipodi:cx="37.261993"
         sodipodi:cy="32.147602"
         sodipodi:r1="5.0882306"
         sodipodi:r2="2.5441153"
         sodipodi:arg1="1.2036225"
         sodipodi:arg2="1.9890207"
         inkscape:rounded="0"
         inkscape:randomized="0"
         d="m 39.088562,36.89668 -2.859832,-2.424236 -3.715814,-0.498274 2.424236,-2.859831 0.498273,-3.715815 2.859832,2.424236 3.715814,0.498274 -2.424236,2.859831 z"
         inkscape:transform-center-x="-0.10929724"
         inkscape:transform-center-y="-0.022431692"
         transform="matrix(0.26923079,0,0,0.26923079,143.91522,-0.64797805)"
         inkscape:label="fs2" /><path
         sodipodi:type="star"
         style="display:inline;fill:#decd87;fill-opacity:1;stroke-width:0.264583"
         id="path2-3-9"
         inkscape:flatsided="false"
         sodipodi:sides="4"
         sodipodi:cx="37.261993"
         sodipodi:cy="32.147602"
         sodipodi:r1="5.0882306"
         sodipodi:r2="2.5441153"
         sodipodi:arg1="1.2036225"
         sodipodi:arg2="1.9890207"
         inkscape:rounded="0"
         inkscape:randomized="0"
         d="m 39.088562,36.89668 -2.859832,-2.424236 -3.715814,-0.498274 2.424236,-2.859831 0.498273,-3.715815 2.859832,2.424236 3.715814,0.498274 -2.424236,2.859831 z"
         inkscape:transform-center-x="-0.10929724"
         inkscape:transform-center-y="-0.022431692"
         transform="matrix(0.26923079,0,0,0.26923079,162.46156,249.62411)"
         inkscape:label="fs2" /><path
         sodipodi:type="star"
         style="display:inline;fill:#decd87;fill-opacity:1;stroke-width:0.264583"
         id="path2-3-9-6"
         inkscape:flatsided="false"
         sodipodi:sides="4"
         sodipodi:cx="37.261993"
         sodipodi:cy="32.147602"
         sodipodi:r1="5.0882306"
         sodipodi:r2="2.5441153"
         sodipodi:arg1="1.2036225"
         sodipodi:arg2="1.9890207"
         inkscape:rounded="0"
         inkscape:randomized="0"
         d="m 39.088562,36.89668 -2.859832,-2.424236 -3.715814,-0.498274 2.424236,-2.859831 0.498273,-3.715815 2.859832,2.424236 3.715814,0.498274 -2.424236,2.859831 z"
         inkscape:transform-center-x="-0.10929724"
         inkscape:transform-center-y="-0.022431692"
         transform="matrix(0.26923079,0,0,0.26923079,103.21352,228.68682)"
         inkscape:label="fs2" /><path
         sodipodi:type="star"
         style="display:inline;fill:#decd87;fill-opacity:1;stroke-width:0.264583"
         id="path2-3-3"
         inkscape:flatsided="false"
         sodipodi:sides="4"
         sodipodi:cx="37.261993"
         sodipodi:cy="32.147602"
         sodipodi:r1="5.0882306"
         sodipodi:r2="2.5441153"
         sodipodi:arg1="1.2036225"
         sodipodi:arg2="1.9890207"
         inkscape:rounded="0"
         inkscape:randomized="0"
         d="m 39.088562,36.89668 -2.859832,-2.424236 -3.715814,-0.498274 2.424236,-2.859831 0.498273,-3.715815 2.859832,2.424236 3.715814,0.498274 -2.424236,2.859831 z"
         inkscape:transform-center-x="-0.10929724"
         inkscape:transform-center-y="-0.022431692"
         transform="matrix(0.26923079,0,0,0.26923079,56.40778,241.12249)"
         inkscape:label="fs2" /><path
         sodipodi:type="star"
         style="display:inline;fill:#decd87;fill-opacity:1;stroke-width:0.264583"
         id="path2-3-7"
         inkscape:flatsided="false"
         sodipodi:sides="4"
         sodipodi:cx="37.261993"
         sodipodi:cy="32.147602"
         sodipodi:r1="5.0882306"
         sodipodi:r2="2.5441153"
         sodipodi:arg1="1.2036225"
         sodipodi:arg2="1.9890207"
         inkscape:rounded="0"
         inkscape:randomized="0"
         d="m 39.088562,36.89668 -2.859832,-2.424236 -3.715814,-0.498274 2.424236,-2.859831 0.498273,-3.715815 2.859832,2.424236 3.715814,0.498274 -2.424236,2.859831 z"
         inkscape:transform-center-x="-0.10929724"
         inkscape:transform-center-y="-0.022431692"
         transform="matrix(0.26923079,0,0,0.26923079,94.400399,7.3217543)"
         inkscape:label="fs2" /><path
         sodipodi:type="star"
         style="display:inline;fill:#decd87;fill-opacity:1;stroke-width:0.264583"
         id="path2-3-6"
         inkscape:flatsided="false"
         sodipodi:sides="4"
         sodipodi:cx="37.261993"
         sodipodi:cy="32.147602"
         sodipodi:r1="5.0882306"
         sodipodi:r2="2.5441153"
         sodipodi:arg1="1.2036225"
         sodipodi:arg2="1.9890207"
         inkscape:rounded="0"
         inkscape:randomized="0"
         d="m 39.088562,36.89668 -2.859832,-2.424236 -3.715814,-0.498274 2.424236,-2.859831 0.498273,-3.715815 2.859832,2.424236 3.715814,0.498274 -2.424236,2.859831 z"
         inkscape:transform-center-x="-0.10929724"
         inkscape:transform-center-y="-0.022431692"
         transform="matrix(0.26923079,0,0,0.26923079,183.71288,225.11447)"
         inkscape:label="fs2" /><path
         sodipodi:type="star"
         style="display:inline;fill:#decd87;fill-opacity:1;stroke-width:0.264583"
         id="path2-3-07"
         inkscape:flatsided="false"
         sodipodi:sides="4"
         sodipodi:cx="37.261993"
         sodipodi:cy="32.147602"
         sodipodi:r1="5.0882306"
         sodipodi:r2="2.5441153"
         sodipodi:arg1="1.2036225"
         sodipodi:arg2="1.9890207"
         inkscape:rounded="0"
         inkscape:randomized="0"
         d="m 39.088562,36.89668 -2.859832,-2.424236 -3.715814,-0.498274 2.424236,-2.859831 0.498273,-3.715815 2.859832,2.424236 3.715814,0.498274 -2.424236,2.859831 z"
         inkscape:transform-center-x="-0.10929724"
         inkscape:transform-center-y="-0.022431692"
         transform="matrix(0.26923079,0,0,0.26923079,8.2991997,210.16212)"
         inkscape:label="fs2" /><path
         sodipodi:type="star"
         style="display:inline;fill:#decd87;fill-opacity:1;stroke-width:0.264583"
         id="path2-3-4"
         inkscape:flatsided="false"
         sodipodi:sides="4"
         sodipodi:cx="37.261993"
         sodipodi:cy="32.147602"
         sodipodi:r1="5.0882306"
         sodipodi:r2="2.5441153"
         sodipodi:arg1="1.2036225"
         sodipodi:arg2="1.9890207"
         inkscape:rounded="0"
         inkscape:randomized="0"
         d="m 39.088562,36.89668 -2.859832,-2.424236 -3.715814,-0.498274 2.424236,-2.859831 0.498273,-3.715815 2.859832,2.424236 3.715814,0.498274 -2.424236,2.859831 z"
         inkscape:transform-center-x="-0.10929724"
         inkscape:transform-center-y="-0.022431692"
         transform="matrix(0.26923079,0,0,0.26923079,167.21064,76.092013)"
         inkscape:label="fs2" /><path
         sodipodi:type="star"
         style="display:inline;fill:#decd87;fill-opacity:1;stroke-width:0.264583"
         id="path2-3-30"
         inkscape:flatsided="false"
         sodipodi:sides="4"
         sodipodi:cx="37.261993"
         sodipodi:cy="32.147602"
         sodipodi:r1="5.0882306"
         sodipodi:r2="2.5441153"
         sodipodi:arg1="1.2036225"
         sodipodi:arg2="1.9890207"
         inkscape:rounded="0"
         inkscape:randomized="0"
         d="m 39.088562,36.89668 -2.859832,-2.424236 -3.715814,-0.498274 2.424236,-2.859831 0.498273,-3.715815 2.859832,2.424236 3.715814,0.498274 -2.424236,2.859831 z"
         inkscape:transform-center-x="-0.10929724"
         inkscape:transform-center-y="-0.022431692"
         transform="matrix(0.26923079,0,0,0.26923079,5.3766905,55.269135)"
         inkscape:label="fs2" /><path
         sodipodi:type="star"
         style="display:inline;fill:#decd87;fill-opacity:1;stroke-width:0.264583"
         id="path2-3-66"
         inkscape:flatsided="false"
         sodipodi:sides="4"
         sodipodi:cx="37.261993"
         sodipodi:cy="32.147602"
         sodipodi:r1="5.0882306"
         sodipodi:r2="2.5441153"
         sodipodi:arg1="1.2036225"
         sodipodi:arg2="1.9890207"
         inkscape:rounded="0"
         inkscape:randomized="0"
         d="m 39.088562,36.89668 -2.859832,-2.424236 -3.715814,-0.498274 2.424236,-2.859831 0.498273,-3.715815 2.859832,2.424236 3.715814,0.498274 -2.424236,2.859831 z"
         inkscape:transform-center-x="-0.10929724"
         inkscape:transform-center-y="-0.022431692"
         transform="matrix(0.26923079,0,0,0.26923079,185.29366,-2.6330793)"
         inkscape:label="fs2" /></g><g
       id="g77"
       style="display:inline"
       inkscape:label="dots"><circle
         id="path14"
         style="fill:#decd87;stroke:#decd87;stroke-width:0.264583"
         cx="27.398525"
         cy="77.081177"
         r="0.048659422" /><circle
         id="path15"
         style="fill:#decd87;stroke:#decd87;stroke-width:0.264583"
         cx="69.044281"
         cy="28.12915"
         r="0.048659422" /><circle
         id="path16"
         style="fill:#decd87;stroke:#decd87;stroke-width:0.264583"
         cx="169.14023"
         cy="100.46125"
         r="0.048659422" /><circle
         id="path17"
         style="fill:#decd87;stroke:#decd87;stroke-width:0.264583"
         cx="154.89297"
         cy="187.4059"
         r="0.048659422" /><circle
         id="path18"
         style="fill:#decd87;stroke:#decd87;stroke-width:0.264583"
         cx="123.84132"
         cy="240.01108"
         r="0.048659422" /><circle
         id="path19"
         style="fill:#decd87;stroke:#decd87;stroke-width:0.264583"
         cx="109.22878"
         cy="151.23985"
         r="0.048659422" /><circle
         id="path20"
         style="fill:#decd87;stroke:#decd87;stroke-width:0.264583"
         cx="148.68265"
         cy="122.74538"
         r="0.048659422" /><circle
         id="path21"
         style="fill:#decd87;stroke:#decd87;stroke-width:0.264583"
         cx="79.638382"
         cy="93.520294"
         r="0.048659422" /><circle
         id="path22"
         style="fill:#decd87;stroke:#decd87;stroke-width:0.264583"
         cx="111.05535"
         cy="59.180809"
         r="0.048659422" /><circle
         id="path23"
         style="fill:#decd87;stroke:#decd87;stroke-width:0.264583"
         cx="20.092251"
         cy="104.11439"
         r="0.048659422" /><circle
         id="path24"
         style="fill:#decd87;stroke:#decd87;stroke-width:0.264583"
         cx="58.450184"
         cy="146.12546"
         r="0.048659422" /><circle
         id="path25"
         style="fill:#decd87;stroke:#decd87;stroke-width:0.264583"
         cx="46.029518"
         cy="204.57564"
         r="0.048659422" /><circle
         id="path26"
         style="fill:#decd87;stroke:#decd87;stroke-width:0.264583"
         cx="80.003693"
         cy="180.09962"
         r="0.048659422" /><circle
         id="path27"
         style="fill:#decd87;stroke:#decd87;stroke-width:0.264583"
         cx="48.221401"
         cy="235.26199"
         r="0.048659422" /><circle
         id="path28"
         style="fill:#decd87;stroke:#decd87;stroke-width:0.264583"
         cx="97.53875"
         cy="262.2952"
         r="0.048659422" /><circle
         id="path29"
         style="fill:#decd87;stroke:#decd87;stroke-width:0.264583"
         cx="75.985245"
         cy="280.56088"
         r="0.048659422" /><circle
         id="path30"
         style="fill:#decd87;stroke:#decd87;stroke-width:0.264583"
         cx="18.630997"
         cy="279.83026"
         r="0.048659422" /><circle
         id="path31"
         style="fill:#decd87;stroke:#decd87;stroke-width:0.264583"
         cx="26.667896"
         cy="251.33578"
         r="0.048659422" /><circle
         id="path32"
         style="fill:#decd87;stroke:#decd87;stroke-width:0.264583"
         cx="40.184502"
         cy="262.2952"
         r="0.048659422" /><circle
         id="path33"
         style="fill:#decd87;stroke:#decd87;stroke-width:0.264583"
         cx="39.088562"
         cy="280.19559"
         r="0.048659422" /><circle
         id="path34"
         style="fill:#decd87;stroke:#decd87;stroke-width:0.264583"
         cx="15.343174"
         cy="265.58304"
         r="0.048659422" /><circle
         id="path35"
         style="fill:#decd87;stroke:#decd87;stroke-width:0.264583"
         cx="125.66789"
         cy="275.08118"
         r="0.048659422" /><circle
         id="path36"
         style="fill:#decd87;stroke:#decd87;stroke-width:0.264583"
         cx="184.4834"
         cy="199.82655"
         r="0.048659422" /><circle
         id="path37"
         style="fill:#decd87;stroke:#decd87;stroke-width:0.264583"
         cx="185.94466"
         cy="267.40958"
         r="0.048659422" /><circle
         id="path38"
         style="fill:#decd87;stroke:#decd87;stroke-width:0.264583"
         cx="202.74907"
         cy="263.02582"
         r="0.048659422" /><circle
         id="path39"
         style="fill:#decd87;stroke:#decd87;stroke-width:0.264583"
         cx="203.84502"
         cy="279.09964"
         r="0.048659422" /><circle
         id="path40"
         style="fill:#decd87;stroke:#decd87;stroke-width:0.264583"
         cx="153.79704"
         cy="241.47232"
         r="0.048659422" /><circle
         id="path41"
         style="fill:#decd87;stroke:#decd87;stroke-width:0.264583"
         cx="171.69742"
         cy="211.5166"
         r="0.048659422" /><circle
         id="path42"
         style="fill:#decd87;stroke:#decd87;stroke-width:0.264583"
         cx="132.60886"
         cy="208.9594"
         r="0.048659422" /><circle
         id="path43"
         style="fill:#decd87;stroke:#decd87;stroke-width:0.264583"
         cx="169.50552"
         cy="185.94466"
         r="0.048659422" /><circle
         id="path44"
         style="fill:#decd87;stroke:#decd87;stroke-width:0.264583"
         cx="192.52029"
         cy="159.64206"
         r="0.048659422" /><circle
         id="path45"
         style="fill:#decd87;stroke:#decd87;stroke-width:0.264583"
         cx="168.7749"
         cy="149.77859"
         r="0.048659422" /><circle
         id="path46"
         style="fill:#decd87;stroke:#decd87;stroke-width:0.264583"
         cx="183.75276"
         cy="64.660515"
         r="0.048659422" /><circle
         id="path47"
         style="fill:#decd87;stroke:#decd87;stroke-width:0.264583"
         cx="161.10333"
         cy="47.490772"
         r="0.048659422" /><circle
         id="path48"
         style="fill:#decd87;stroke:#decd87;stroke-width:0.264583"
         cx="189.59779"
         cy="34.704796"
         r="0.048659422" /><circle
         id="path49"
         style="fill:#decd87;stroke:#decd87;stroke-width:0.264583"
         cx="160.73801"
         cy="13.881919"
         r="0.048659422" /><circle
         id="path50"
         style="fill:#decd87;stroke:#decd87;stroke-width:0.264583"
         cx="104.4797"
         cy="4.7490773"
         r="0.048659422" /><circle
         id="path51"
         style="fill:#decd87;stroke:#decd87;stroke-width:0.264583"
         cx="138.08856"
         cy="23.014759"
         r="0.048659422" /><circle
         id="path52"
         style="fill:#decd87;stroke:#decd87;stroke-width:0.264583"
         cx="90.963097"
         cy="34.704796"
         r="0.048659422" /><circle
         id="path53"
         style="fill:#decd87;stroke:#decd87;stroke-width:0.264583"
         cx="88.405899"
         cy="58.450184"
         r="0.048659422" /><circle
         id="path54"
         style="fill:#decd87;stroke:#decd87;stroke-width:0.264583"
         cx="67.583023"
         cy="13.516605"
         r="0.048659422" /><circle
         id="path55"
         style="fill:#decd87;stroke:#decd87;stroke-width:0.264583"
         cx="30.686346"
         cy="9.8634682"
         r="0.048659422" /><circle
         id="path56"
         style="fill:#decd87;stroke:#decd87;stroke-width:0.264583"
         cx="17.169741"
         cy="4.0184503"
         r="0.048659422" /><circle
         id="path57"
         style="fill:#decd87;stroke:#decd87;stroke-width:0.264583"
         cx="4.7490773"
         cy="37.261993"
         r="0.048659422" /><circle
         id="path58"
         style="fill:#decd87;stroke:#decd87;stroke-width:0.264583"
         cx="42.376381"
         cy="46.394833"
         r="0.048659422" /><circle
         id="path59"
         style="fill:#decd87;stroke:#decd87;stroke-width:0.264583"
         cx="76.715866"
         cy="135.89668"
         r="0.048659422" /><circle
         id="path60"
         style="fill:#decd87;stroke:#decd87;stroke-width:0.264583"
         cx="85.848709"
         cy="113.61255"
         r="0.048659422" /><circle
         id="path61"
         style="fill:#decd87;stroke:#decd87;stroke-width:0.264583"
         cx="122.38007"
         cy="105.21033"
         r="0.048659422" /><circle
         id="path62"
         style="fill:#decd87;stroke:#decd87;stroke-width:0.264583"
         cx="147.95203"
         cy="85.483398"
         r="0.048659422" /><circle
         id="path63"
         style="fill:#decd87;stroke:#decd87;stroke-width:0.264583"
         cx="175.35056"
         cy="132.24355"
         r="0.048659422" /><circle
         id="path64"
         style="fill:#decd87;stroke:#decd87;stroke-width:0.264583"
         cx="205.30626"
         cy="189.59779"
         r="0.048659422" /><circle
         id="path65"
         style="fill:#decd87;stroke:#decd87;stroke-width:0.264583"
         cx="20.457565"
         cy="132.97417"
         r="0.048659422" /><circle
         id="path66"
         style="fill:#decd87;stroke:#decd87;stroke-width:0.264583"
         cx="36.531364"
         cy="128.95572"
         r="0.048659422" /><circle
         id="path67"
         style="fill:#decd87;stroke:#decd87;stroke-width:0.264583"
         cx="35.07011"
         cy="162.56458"
         r="0.048659422" /><circle
         id="path68"
         style="fill:#decd87;stroke:#decd87;stroke-width:0.264583"
         cx="14.247232"
         cy="176.8118"
         r="0.048659422" /><circle
         id="path69"
         style="fill:#decd87;stroke:#decd87;stroke-width:0.264583"
         cx="52.605167"
         cy="173.8893"
         r="0.048659422" /><circle
         id="path70"
         style="fill:#decd87;stroke:#decd87;stroke-width:0.264583"
         cx="36.531364"
         cy="224.30258"
         r="0.048659422" /><circle
         id="path71"
         style="fill:#decd87;stroke:#decd87;stroke-width:0.264583"
         cx="3.287823"
         cy="196.53874"
         r="0.048659422" /><circle
         id="path72"
         style="fill:#decd87;stroke:#decd87;stroke-width:0.264583"
         cx="79.638382"
         cy="215.16974"
         r="0.048659422" /><circle
         id="path73"
         style="fill:#decd87;stroke:#decd87;stroke-width:0.264583"
         cx="71.23616"
         cy="195.44279"
         r="0.048659422" /><circle
         id="path74"
         style="fill:#decd87;stroke:#decd87;stroke-width:0.264583"
         cx="94.250923"
         cy="238.5498"
         r="0.048659422" /><circle
         id="path75"
         style="fill:#decd87;stroke:#decd87;stroke-width:0.264583"
         cx="112.88192"
         cy="203.47969"
         r="0.048659422" /><circle
         id="path76"
         style="fill:#decd87;stroke:#decd87;stroke-width:0.264583"
         cx="124.57196"
         cy="188.13652"
         r="0.048659422" /><circle
         id="path77"
         style="fill:#decd87;stroke:#decd87;stroke-width:0.264583"
         cx="153.79704"
         cy="214.80443"
         r="0.048659422" /></g></g></svg>
