<?xml version="1.0" encoding="UTF-8"?>
<svg xmlns="http://www.w3.org/2000/svg" xmlns:xlink="http://www.w3.org/1999/xlink" width="30px" height="30px" viewBox="0 0 30 30" version="1.1">
<g id="surface1">
<path style=" stroke:none;fill-rule:nonzero;fill:rgb(0%,52.941176%,68.627451%);fill-opacity:1;" d="M 14.921875 28.761719 C 22.527344 28.761719 28.714844 22.574219 28.714844 14.964844 C 28.714844 7.359375 22.527344 1.171875 14.921875 1.171875 C 7.316406 1.171875 1.128906 7.359375 1.128906 14.964844 C 1.128906 22.574219 7.316406 28.761719 14.921875 28.761719 Z M 14.921875 1.773438 C 22.195312 1.773438 28.113281 7.691406 28.113281 14.964844 C 28.113281 22.242188 22.195312 28.160156 14.921875 28.160156 C 7.648438 28.160156 1.726562 22.242188 1.726562 14.964844 C 1.726562 7.691406 7.648438 1.773438 14.921875 1.773438 Z M 14.921875 1.773438 "/>
<path style=" stroke:none;fill-rule:nonzero;fill:rgb(0%,52.941176%,68.627451%);fill-opacity:1;" d="M 11.273438 11.929688 L 8.539062 11.929688 C 8.375 11.929688 8.238281 12.066406 8.238281 12.230469 L 8.238281 21.066406 C 8.238281 21.230469 8.375 21.367188 8.539062 21.367188 L 11.273438 21.367188 C 11.4375 21.367188 11.574219 21.230469 11.574219 21.066406 L 11.574219 12.230469 C 11.574219 12.066406 11.4375 11.929688 11.273438 11.929688 Z M 10.972656 20.765625 L 8.839844 20.765625 L 8.839844 12.53125 L 10.972656 12.53125 Z M 10.972656 20.765625 "/>
<path style=" stroke:none;fill-rule:nonzero;fill:rgb(0%,52.941176%,68.627451%);fill-opacity:1;" d="M 13.023438 21.367188 L 15.644531 21.367188 C 15.808594 21.367188 15.945312 21.230469 15.945312 21.066406 L 15.945312 16.429688 C 15.945312 15.660156 16.179688 14.746094 17.308594 14.746094 C 17.605469 14.746094 18.5 14.746094 18.5 16.429688 L 18.5 21.066406 C 18.5 21.230469 18.632812 21.367188 18.800781 21.367188 L 21.519531 21.367188 C 21.6875 21.367188 21.820312 21.230469 21.820312 21.066406 L 21.820312 15.472656 C 21.820312 13.085938 20.507812 11.660156 18.304688 11.660156 C 17.175781 11.660156 16.410156 12.140625 15.945312 12.582031 L 15.945312 12.230469 C 15.945312 12.066406 15.808594 11.933594 15.644531 11.933594 L 13.023438 11.933594 C 12.855469 11.933594 12.722656 12.066406 12.722656 12.230469 L 12.722656 21.066406 C 12.722656 21.230469 12.855469 21.367188 13.023438 21.367188 Z M 13.320312 12.53125 L 15.34375 12.53125 L 15.34375 13.421875 C 15.34375 13.558594 15.4375 13.679688 15.570312 13.710938 C 15.703125 13.746094 15.84375 13.683594 15.910156 13.5625 C 15.914062 13.550781 16.632812 12.261719 18.304688 12.261719 C 20.15625 12.261719 21.21875 13.429688 21.21875 15.472656 L 21.21875 20.765625 L 19.097656 20.765625 L 19.097656 16.429688 C 19.097656 14.441406 17.976562 14.148438 17.308594 14.148438 C 16.078125 14.148438 15.34375 15 15.34375 16.429688 L 15.34375 20.765625 L 13.320312 20.765625 Z M 13.320312 12.53125 "/>
<path style=" stroke:none;fill-rule:nonzero;fill:rgb(0%,52.941176%,68.627451%);fill-opacity:1;" d="M 9.894531 11.375 C 10.949219 11.375 11.808594 10.507812 11.808594 9.445312 C 11.808594 8.378906 10.949219 7.515625 9.894531 7.515625 C 8.835938 7.515625 7.976562 8.378906 7.976562 9.445312 C 7.976562 10.507812 8.835938 11.375 9.894531 11.375 Z M 9.894531 8.113281 C 10.617188 8.113281 11.210938 8.710938 11.210938 9.445312 C 11.210938 10.179688 10.621094 10.773438 9.894531 10.773438 C 9.167969 10.773438 8.574219 10.179688 8.574219 9.445312 C 8.574219 8.710938 9.167969 8.113281 9.894531 8.113281 Z M 9.894531 8.113281 "/>
</g>
</svg>
