<?xml version="1.0" encoding="UTF-8"?>
<!-- Generator: visioncortex VTracer 0.6.2 -->
<svg version="1.1" xmlns="http://www.w3.org/2000/svg" width="1280" height="448">
<path d="M0 0 C5.42450194 3.38647539 5.42450194 3.38647539 11.62109375 3.4921875 C12.39710937 3.39292969 13.173125 3.29367188 13.97265625 3.19140625 C16.05505061 2.88827551 16.05505061 2.88827551 17.99609375 1.8046875 C20.03491629 1.59391874 22.07431243 1.3872657 24.11621094 1.20874023 C31.02072476 0.59655473 37.01004127 -0.04842042 43.23828125 -3.296875 C45.81854302 -4.61567546 48.11132505 -5.12662753 50.99609375 -5.1953125 C53.13561114 -3.6167603 53.90245372 -2.69078424 54.40014648 -0.05737305 C54.40989502 0.75948975 54.41964355 1.57635254 54.4296875 2.41796875 C54.44080566 3.3301416 54.45192383 4.24231445 54.46337891 5.18212891 C54.44863525 6.63498291 54.44863525 6.63498291 54.43359375 8.1171875 C54.42658447 9.59711182 54.42658447 9.59711182 54.41943359 11.10693359 C54.22788199 20.6455806 52.5155428 29.29509424 47.99609375 37.8046875 C47.33609375 37.8046875 46.67609375 37.8046875 45.99609375 37.8046875 C45.72796875 38.5471875 45.45984375 39.2896875 45.18359375 40.0546875 C43.99609375 42.8046875 43.99609375 42.8046875 42.4609375 44.40234375 C40.21637594 48.08342471 40.46424455 51.75715294 40.37109375 55.9921875 C40.10130958 64.69947167 40.10130958 64.69947167 38.99609375 65.8046875 C38.93421875 66.7740625 38.87234375 67.7434375 38.80859375 68.7421875 C37.33261471 79.22377776 28.8495686 86.57106166 20.99609375 92.8046875 C18.96058566 94.13841664 16.89293904 95.36978106 14.79296875 96.59765625 C11.54683345 98.77821235 9.00678206 101.45095257 6.99609375 104.8046875 C6.62706928 108.49493219 8.38291972 110.54420549 10.55859375 113.3671875 C16.02473292 119.36692597 23.42223472 121.4904528 30.99609375 123.8046875 C30.99609375 124.4646875 30.99609375 125.1246875 30.99609375 125.8046875 C31.98609375 125.8871875 32.97609375 125.9696875 33.99609375 126.0546875 C38.47066323 126.66776757 42.0918006 128.62436795 45.99609375 130.8046875 C45.99609375 131.4646875 45.99609375 132.1246875 45.99609375 132.8046875 C47.31609375 132.8046875 48.63609375 132.8046875 49.99609375 132.8046875 C51.37362001 134.09231204 52.69985953 135.43525973 53.99609375 136.8046875 C56.07864359 138.25294438 58.18503303 139.66726122 60.30859375 141.0546875 C66.40275957 145.14648455 72.59242392 149.59367801 74.99609375 156.8046875 C75.65609375 156.8046875 76.31609375 156.8046875 76.99609375 156.8046875 C77.43308594 157.60519531 77.43308594 157.60519531 77.87890625 158.421875 C80.18350925 162.6107446 82.56111006 166.70381323 85.12109375 170.7421875 C88.05932715 175.58650564 89.56577589 180.35994417 90.99609375 185.8046875 C91.36734375 186.7740625 91.73859375 187.7434375 92.12109375 188.7421875 C96.7456512 204.92813858 95.20229108 226.69937931 90.99609375 242.8046875 C90.77953125 243.67867187 90.56296875 244.55265625 90.33984375 245.453125 C88.88279603 251.10710365 87.05617336 256.3807417 84.66796875 261.7109375 C83.71916249 263.95885029 83.71916249 263.95885029 84.99609375 266.8046875 C86.1755444 266.80192212 86.1755444 266.80192212 87.37882233 266.79910088 C106.52551034 266.75490112 125.67218815 266.72182083 144.81891632 266.70106316 C154.07818943 266.69075768 163.33742846 266.67671125 172.59667969 266.65380859 C180.66855693 266.63385244 188.74040947 266.62096577 196.8123107 266.61651051 C201.08493196 266.61390691 205.35748259 266.60780244 209.63008118 266.59322739 C213.65521698 266.57960831 217.68025334 266.57547358 221.70541 266.57847214 C223.17915768 266.57792391 224.65290882 266.57397228 226.12663651 266.56627655 C237.92271651 266.50772224 249.82465735 267.1597256 258.96484375 275.62890625 C261.70377621 278.91691715 263.35438039 281.66286429 263.55859375 285.9921875 C262.97834906 289.92495704 262.34811969 291.66697409 259.99609375 294.8046875 C257.38671875 296.3515625 257.38671875 296.3515625 254.24609375 297.5546875 C253.240625 297.96203125 252.23515625 298.369375 251.19921875 298.7890625 C240.70247448 301.88621171 228.17268711 300.93817945 217.359375 300.8671875 C215.95260814 300.86234931 214.54583903 300.85813354 213.1390686 300.85447693 C210.11677795 300.84613372 207.09451078 300.83537195 204.07223511 300.82272339 C195.73178298 300.78929761 187.39129307 300.78109895 179.05078125 300.77734375 C177.73003381 300.77670268 177.73003381 300.77670268 176.3826046 300.77604866 C154.23148472 300.77076677 132.08307733 300.99094464 109.93359375 301.2421875 C108.95147919 301.25320873 107.96936462 301.26422997 106.95748901 301.27558517 C83.72964683 301.53689512 60.50419166 301.8583123 37.27908325 302.30114746 C18.10605563 302.66599152 -1.06439058 302.92883111 -20.24111938 302.98092651 C-22.69944457 302.9882836 -25.15776284 302.9988262 -27.61605835 303.01296997 C-38.50290538 303.0706236 -49.35164085 303.1046446 -60.19140625 301.98046875 C-60.89177002 301.91111618 -61.59213379 301.84176361 -62.3137207 301.77030945 C-68.76528516 300.98386867 -74.72188532 298.6194804 -80.00390625 294.8046875 C-82.52584126 291.21360298 -83.54093906 288.18695676 -84.19140625 283.8671875 C-84.34996094 282.86816406 -84.50851562 281.86914062 -84.671875 280.83984375 C-85.35272025 274.61611713 -85.20980828 270.83743189 -81.6796875 265.63671875 C-76.47994385 259.95215051 -69.24770829 259.46330419 -62.00390625 258.8046875 C-56.70024309 234.61414187 -56.70024309 234.61414187 -54.69140625 209.9921875 C-54.67360107 209.11989502 -54.6557959 208.24760254 -54.63745117 207.34887695 C-54.64641522 200.10799621 -55.40571484 193.5557137 -60.52734375 188.1328125 C-61.46835937 187.44703125 -62.409375 186.76125 -63.37890625 186.0546875 C-79.50197911 174.06231926 -92.43530895 156.19163967 -95.44140625 136.1171875 C-97.39274768 119.91700844 -91.84611592 106.01559262 -82.62890625 92.8671875 C-80.05494739 89.10630927 -78.92317869 86.48688604 -79.00390625 81.8046875 C-79.81418959 78.07231985 -80.83996774 74.44117336 -82.00390625 70.8046875 C-82.66390625 70.8046875 -83.32390625 70.8046875 -84.00390625 70.8046875 C-85.44921875 69.3359375 -85.44921875 69.3359375 -87.12890625 67.3046875 C-89.6674323 64.30076501 -92.28443902 61.51986076 -95.12890625 58.8046875 C-99.96767535 53.97533235 -104.18903795 49.4016462 -104.56640625 42.3046875 C-104.34296432 38.20592458 -102.94717105 35.54356972 -100.953125 32.03125 C-99.4004969 28.38928286 -99.4270384 24.68031357 -99.1953125 20.765625 C-98.72657146 13.51448809 -97.50947305 8.62773686 -92.63671875 3.1171875 C-89.23650122 0.38399829 -85.85345603 0.7611323 -81.62475586 0.92138672 C-68.72128018 1.36522588 -58.04522832 -3.01806439 -46.31640625 -7.92578125 C-29.9282761 -14.20660943 -14.19841282 -8.60861712 0 0 Z " fill="#8FB5E5" transform="translate(1015.00390625,77.1953125)"/>
<path d="M0 0 C1.21945312 -0.01224609 2.43890625 -0.02449219 3.6953125 -0.03710938 C16.72572927 -0.05821696 29.63331391 2.38291685 39.51171875 11.59765625 C45.6225518 18.479225 46.88700183 25.70650927 46.5234375 34.6328125 C45.04047969 51.63887099 35.07936323 67.58863674 27 82.1875 C26.60603027 82.90760254 26.21206055 83.62770508 25.80615234 84.36962891 C21.80357859 91.67164612 17.46319261 98.69061994 12.76171875 105.56640625 C11.61635135 107.27048946 10.51414734 109.00467204 9.46484375 110.76953125 C7.62618934 113.8045368 5.48798852 116.52872861 3.3046875 119.3203125 C1.81817608 121.25936811 1.81817608 121.25936811 1 124.1875 C0.34 124.1875 -0.32 124.1875 -1 124.1875 C-1.37125 125.1775 -1.37125 125.1775 -1.75 126.1875 C-2.75612943 128.60221064 -3.80322813 130.95703887 -4.9375 133.3125 C-5.25589844 133.97507813 -5.57429687 134.63765625 -5.90234375 135.3203125 C-7 137.1875 -7 137.1875 -8.421875 138.5859375 C-12.14487556 142.36423015 -14.41522055 147.59539182 -17 152.1875 C-17.54398438 153.15042969 -18.08796875 154.11335937 -18.6484375 155.10546875 C-21.40800039 160.07128115 -23.90622688 165.05521434 -26.1328125 170.28125 C-27 172.1875 -27 172.1875 -28.5625 174.5625 C-32.13901625 181.09352968 -34.42296771 189.74785359 -33 197.1875 C-30.80168636 200.21965675 -29.55036806 201.00404398 -26 202.1875 C-19.96559952 202.49962416 -14.81753962 201.74125282 -9 200.1875 C-8.06671875 199.96578125 -7.1334375 199.7440625 -6.171875 199.515625 C3.13928675 197.03576785 17.95459654 193.07908358 23.125 184.27099609 C24.50159325 180.62044288 25.16488178 176.89508814 25.875 173.0703125 C26.95130053 167.56650298 29.31196289 163.00868702 32 158.125 C32.41636719 157.36453369 32.83273437 156.60406738 33.26171875 155.82055664 C34.08112919 154.34442234 34.90770104 152.87223862 35.74169922 151.40429688 C37.06007259 149.0816678 38.3467877 146.74301449 39.6328125 144.40234375 C41.27100548 141.45238148 42.95750976 138.59229354 44.875 135.8125 C47.05832383 132.61470247 49.11002919 129.36861716 51.125 126.0625 C55.41925886 119.2790911 60.47520837 113.14629975 65.56152344 106.95068359 C66.84095172 105.38245022 68.09791853 103.79595209 69.3515625 102.20703125 C77.6457936 91.75630006 86.61159031 82.27318298 98 75.1875 C98.8353125 74.63964844 99.670625 74.09179688 100.53125 73.52734375 C104.33936166 71.4605996 106.69971274 71.77794883 111 72.1875 C113.84041803 73.60770902 114.75262542 74.75164954 116.3125 77.5 C118.29542983 85.25145299 113.83257598 95.77333127 110.203125 102.53515625 C108.1969862 105.79707573 106.11495566 108.99526355 104 112.1875 C102.76995319 114.18695881 101.54073383 116.18692699 100.3125 118.1875 C97.86052853 122.03113095 95.26816657 124.99904481 92 128.1875 C90.83729358 129.80047018 89.69404266 131.42751675 88.5625 133.0625 C83.07293773 140.7396322 76.55537115 147.42020953 70 154.1875 C69.43023438 154.77917969 68.86046875 155.37085938 68.2734375 155.98046875 C60.13503813 164.40276577 51.75691478 172.2117664 42.125 178.9375 C36.54396776 182.57655863 36.54396776 182.57655863 33.51953125 188.22265625 C33.18744475 193.4552624 34.44766731 197.24836654 37.43359375 201.52734375 C39.99657978 204.24372545 42.45262365 205.07073337 46 206.1875 C46.99 206.5175 47.98 206.8475 49 207.1875 C56.43243056 208.16123468 62.64981191 206.98286518 69.5625 204.375 C70.25303467 204.11452881 70.94356934 203.85405762 71.6550293 203.58569336 C75.10858725 202.19871715 77.46382303 200.85822217 80 198.1875 C81.70533147 197.22965514 83.41121196 196.2727395 85.12255859 195.32568359 C88.309096 193.39387119 91.02743214 190.96171676 93.8125 188.5 C94.42287109 187.96745605 95.03324219 187.43491211 95.66210938 186.88623047 C97.44645773 185.32562927 99.22331421 183.75681073 101 182.1875 C102.30517578 181.05248047 102.30517578 181.05248047 103.63671875 179.89453125 C115.15123988 169.75033329 125.62104039 159.01671273 134.83203125 146.74023438 C136.50668508 144.51389693 138.22215511 142.32005999 139.9375 140.125 C140.47761719 139.42761719 141.01773437 138.73023438 141.57421875 138.01171875 C142.77876352 136.47056147 144.01136133 134.95139171 145.25 133.4375 C147.03046332 131.24686465 147.03046332 131.24686465 148.3515625 128.8984375 C150.73424589 124.9799961 153.51295237 121.38080544 156.2578125 117.7109375 C158.13782643 115.23862446 158.13782643 115.23862446 159 112.1875 C159.9942198 111.18175302 160.99526074 110.18273818 162 109.1875 C165.79758677 103.73342526 169.2654211 98.1111395 171.98046875 92.0390625 C173 90.1875 173 90.1875 174.91015625 87.84765625 C177.1308102 85.02099206 178.66506592 82.22189883 180.25 79 C180.77078125 77.95457031 181.2915625 76.90914063 181.828125 75.83203125 C183.13504527 73.36483924 183.13504527 73.36483924 183 71.1875 C181.78763672 71.96287109 181.78763672 71.96287109 180.55078125 72.75390625 C179.48214844 73.41261719 178.41351562 74.07132812 177.3125 74.75 C176.25675781 75.41128906 175.20101563 76.07257813 174.11328125 76.75390625 C170.72438521 78.31441421 169.45446709 78.42612874 166 77.1875 C165 76.1875 165 76.1875 164.5 74 C165.29695492 69.51712858 168.42658457 67.75877679 172 65.1875 C173.43200918 64.24163416 174.86971154 63.30434061 176.3125 62.375 C184.62033002 56.93534939 191.28723392 50.29184602 197.2109375 42.3515625 C198.9728857 40.22029765 200.72467731 38.74113444 203 37.1875 C203.99 37.8475 204.98 38.5075 206 39.1875 C206.68005119 44.13203889 205.30149807 47.23691657 203 51.5625 C202.35484027 52.79394177 201.71033521 54.0257267 201.06640625 55.2578125 C200.72754395 55.89750977 200.38868164 56.53720703 200.03955078 57.19628906 C198.62812041 59.89981797 197.29154971 62.6379182 195.94970703 65.37646484 C192.95490736 71.4744144 189.83477759 77.40679391 186.2265625 83.171875 C184.99189168 85.13731844 184.99189168 85.13731844 184.05419922 87.08398438 C182.36155909 90.46142471 180.42303318 93.68738961 178.5 96.9375 C178.09652344 97.63488281 177.69304687 98.33226562 177.27734375 99.05078125 C176.24143571 100.79780769 175.12662967 102.4975555 174 104.1875 C173.34 104.1875 172.68 104.1875 172 104.1875 C171.6596875 105.2084375 171.6596875 105.2084375 171.3125 106.25 C169.94770193 109.30454807 168.27827305 111.62514895 166.2890625 114.2890625 C164.9549445 116.25385447 163.98655416 118.21741408 163 120.375 C161.28487007 123.99350582 159.24185317 125.79876609 156 128.1875 C154.68834743 130.30410427 154.68834743 130.30410427 154 132.1875 C153.34 132.1875 152.68 132.1875 152 132.1875 C151.92523437 132.909375 151.85046875 133.63125 151.7734375 134.375 C150.79650487 137.92748228 149.17254642 139.54926423 146.625 142.1875 C143.56221984 145.37997443 141.25013248 148.39339363 139 152.1875 C137.66227027 153.76161571 136.28432522 155.30214788 134.875 156.8125 C131.7269485 160.23802399 128.75152134 163.7194208 125.875 167.375 C115.44551222 180.17236109 103.50640648 190.75360883 90 200.1875 C89.43087891 200.5911377 88.86175781 200.99477539 88.27539062 201.41064453 C82.10932008 205.7699901 76.03717932 209.43951056 69 212.1875 C67.6696875 212.7753125 67.6696875 212.7753125 66.3125 213.375 C57.14887382 216.59465244 42.98417871 217.03843528 33.859375 213.21875 C27.54790483 209.71827075 24.42453084 206.22225063 22.41015625 199.23828125 C22 197.1875 22 197.1875 22 194.1875 C20.87722656 194.79078125 19.75445313 195.3940625 18.59765625 196.015625 C1.59099599 205.11853065 -18.00396239 215.5988635 -37.99609375 209.984375 C-41.61333356 208.54594045 -45.12527489 206.84222064 -48 204.1875 C-51.46497432 195.54431405 -49.31338718 183.57554329 -46 175.1875 C-43.55755406 169.73973993 -40.7972489 164.45929113 -38 159.1875 C-37.45730469 158.14722656 -36.91460938 157.10695313 -36.35546875 156.03515625 C-33.62286686 150.89440388 -30.64842484 146.03119111 -27.36328125 141.2265625 C-25.82750378 138.92949705 -24.47365417 136.54743809 -23.125 134.13671875 C-19.23418066 127.39533385 -15.0613709 121.09243272 -10 115.1875 C-9.53980469 114.41921875 -9.07960938 113.6509375 -8.60546875 112.859375 C-6.91000462 110.03772666 -5.03112135 107.44992361 -3.0625 104.8125 C-0.81799121 101.75701905 1.35454363 98.75785539 3.1875 95.4375 C4.86097455 92.43678701 6.68034529 89.78481652 8.75390625 87.05859375 C10.42430193 84.55038205 11.67410724 81.89258774 13 79.1875 C14.09582523 77.12055604 15.20031256 75.05818595 16.3125 73 C17.23095703 71.29263672 17.23095703 71.29263672 18.16796875 69.55078125 C19.29829336 67.47570771 20.44367236 65.40865626 21.61328125 63.35546875 C25.4790784 56.53288618 28.37967263 49.57385677 31 42.1875 C31.433125 41.053125 31.86625 39.91875 32.3125 38.75 C33.8285046 30.89433978 34.59074213 22.99488014 30 16.1875 C30 15.5275 30 14.8675 30 14.1875 C29.34 14.1875 28.68 14.1875 28 14.1875 C27.484375 13.589375 26.96875 12.99125 26.4375 12.375 C19.32039484 5.98785434 8.1323028 5.94722893 -0.9375 5.5 C-1.91396484 5.44005859 -2.89042969 5.38011719 -3.89648438 5.31835938 C-9.11958977 5.05985992 -13.08148535 5.1688753 -18 7.1875 C-19.98550675 7.41167012 -21.97104014 7.63563108 -23.95703125 7.85546875 C-26.63646469 8.29094072 -29.06004438 9.23279586 -31.56640625 10.25390625 C-34.6678145 11.44369208 -37.82870869 12.38667522 -41 13.375 C-51.95676125 16.92215292 -62.54450422 22.03344384 -71.91015625 28.765625 C-74 30.1875 -74 30.1875 -77.28125 31.96484375 C-81.44721501 34.31703643 -84.88303074 37.32132558 -88.4375 40.5 C-89.75389003 41.66277878 -91.07029613 42.82553936 -92.38671875 43.98828125 C-93.00981934 44.54209473 -93.63291992 45.0959082 -94.27490234 45.66650391 C-96.40320576 47.54300125 -98.57793758 49.36200042 -100.75 51.1875 C-103.53012204 53.62233922 -105.18244447 55.9475097 -107 59.1875 C-108.09421813 60.36350248 -109.19986417 61.52890747 -110.3125 62.6875 C-116.15180766 69.24587315 -120.68785391 78.16889404 -121.1796875 87.0546875 C-120.73687852 92.31063761 -118.9014804 96.83527941 -116 101.1875 C-105.17722349 105.65777725 -93.58145343 103.15414833 -83 99.1875 C-69.27419914 93.31488966 -55.61831656 85.56326675 -44 76.1875 C-43.15566406 75.52621094 -42.31132813 74.86492187 -41.44140625 74.18359375 C-36.47637523 70.29546548 -36.47637523 70.29546548 -31.84765625 66.0234375 C-30 64.1875 -30 64.1875 -27.6875 62.9375 C-24.28980631 60.72504829 -22.09410599 57.96184329 -19.55078125 54.83203125 C-19.03902344 54.28933594 -18.52726563 53.74664062 -18 53.1875 C-17.34 53.1875 -16.68 53.1875 -16 53.1875 C-15.62875 52.07375 -15.62875 52.07375 -15.25 50.9375 C-13.90852699 47.98625938 -12.39094474 46.33935026 -10 44.1875 C-8.515 44.6825 -8.515 44.6825 -7 45.1875 C-6.37086649 53.08026583 -11.86359563 59.75971399 -16.75 65.54296875 C-22.9009865 72.50656078 -29.60662848 78.55005422 -37 84.1875 C-37.639375 84.6928125 -38.27875 85.198125 -38.9375 85.71875 C-48.61990314 93.23095933 -58.89087063 100.00951597 -70 105.1875 C-71.14082031 105.79658203 -71.14082031 105.79658203 -72.3046875 106.41796875 C-86.22735494 113.83578337 -102.62438553 118.82174609 -118.4375 115.4375 C-123.74055907 113.57677752 -126.06658133 111.49933164 -129.3125 106.9375 C-132.71902057 99.55670544 -132.1508162 88.81440228 -129.75 81.1875 C-129.19727725 79.84118907 -128.61530164 78.50638568 -128 77.1875 C-127.61714844 76.24970703 -127.61714844 76.24970703 -127.2265625 75.29296875 C-124.24660902 68.58123866 -119.47089587 62.95108583 -115 57.1875 C-114.18208984 56.01960938 -114.18208984 56.01960938 -113.34765625 54.828125 C-112.68056641 54.01601562 -112.68056641 54.01601562 -112 53.1875 C-111.34 53.1875 -110.68 53.1875 -110 53.1875 C-109.9071875 52.32125 -109.9071875 52.32125 -109.8125 51.4375 C-108.67561467 48.28920216 -106.63092771 47.20658406 -104 45.1875 C-103.29875 44.28 -102.5975 43.3725 -101.875 42.4375 C-101.25625 41.695 -100.6375 40.9525 -100 40.1875 C-99.01 40.1875 -98.02 40.1875 -97 40.1875 C-96.79375 39.61 -96.5875 39.0325 -96.375 38.4375 C-94.48841352 35.35035848 -92.04610765 34.09878323 -89 32.1875 C-88.21496094 31.55585938 -87.42992187 30.92421875 -86.62109375 30.2734375 C-62.33199615 10.94351482 -30.76085511 0.01625838 0 0 Z M86.98046875 89.23046875 C85.80772356 90.59228397 84.6555307 91.97214194 83.52734375 93.37109375 C82 95.1875 82 95.1875 79.25 97.375 C76.70271663 99.42697827 75.67723772 101.39075662 74 104.1875 C72.63094343 105.89679548 71.23295149 107.58316932 69.8125 109.25 C65.08235515 114.9659101 61.01481548 120.9568152 57 127.1875 C56.2678125 128.27933594 55.535625 129.37117188 54.78125 130.49609375 C50.66713962 136.66725932 46.9496475 142.92874074 43.625 149.5625 C43.14256836 150.52494629 43.14256836 150.52494629 42.65039062 151.50683594 C39.63394007 157.68322572 37.03882747 163.89553249 35.8125 170.6875 C35.65394531 171.5434375 35.49539063 172.399375 35.33203125 173.28125 C35.22246094 173.9103125 35.11289062 174.539375 35 175.1875 C37.46996149 174.84255786 37.46996149 174.84255786 40 174.1875 C40.69937532 172.87102881 41.36729133 171.53727849 42 170.1875 C43.33242804 169.85056617 44.66587881 169.51766594 46 169.1875 C48.18360469 167.42534233 50.21396319 165.66669973 52.25 163.75 C52.80429687 163.24662109 53.35859375 162.74324219 53.9296875 162.22460938 C55.33088206 160.92522575 56.670873 159.56051326 58 158.1875 C58 157.5275 58 156.8675 58 156.1875 C58.56589844 155.94515625 59.13179687 155.7028125 59.71484375 155.453125 C68.86633118 150.38460889 75.57802689 139.91888678 81.81616211 131.73095703 C84.16748454 128.66536404 86.60754981 125.67074651 89.04296875 122.671875 C96.61250555 113.02037088 106.21105829 100.12745453 106.0625 87.5 C106.05347656 86.50613281 106.04445313 85.51226562 106.03515625 84.48828125 C106.02355469 83.72902344 106.01195312 82.96976562 106 82.1875 C98.19572304 79.81228527 92.49143051 83.65554999 86.98046875 89.23046875 Z M-43 84.1875 C-42.67 84.8475 -42.34 85.5075 -42 86.1875 C-41.34 85.5275 -40.68 84.8675 -40 84.1875 C-40.99 84.1875 -41.98 84.1875 -43 84.1875 Z M11 102.1875 C11.33 103.1775 11.66 104.1675 12 105.1875 C12.33 104.1975 12.66 103.2075 13 102.1875 C12.34 102.1875 11.68 102.1875 11 102.1875 Z M68 107.1875 C69 109.1875 69 109.1875 69 109.1875 Z M163 114.1875 C164 116.1875 164 116.1875 164 116.1875 Z M158 121.1875 C159 123.1875 159 123.1875 159 123.1875 Z M57 122.1875 C56.67 122.8475 56.34 123.5075 56 124.1875 C56.66 124.1875 57.32 124.1875 58 124.1875 C57.67 123.5275 57.34 122.8675 57 122.1875 Z M148 134.1875 C147.67 134.8475 147.34 135.5075 147 136.1875 C147.99 136.1875 148.98 136.1875 150 136.1875 C150 135.5275 150 134.8675 150 134.1875 C149.34 134.1875 148.68 134.1875 148 134.1875 Z M142 141.1875 C142.33 142.5075 142.66 143.8275 143 145.1875 C143.33 143.8675 143.66 142.5475 144 141.1875 C143.34 141.1875 142.68 141.1875 142 141.1875 Z M69 149.1875 C69.33 149.8475 69.66 150.5075 70 151.1875 C70.33 150.5275 70.66 149.8675 71 149.1875 C70.34 149.1875 69.68 149.1875 69 149.1875 Z M61 157.1875 C61.33 157.8475 61.66 158.5075 62 159.1875 C62.33 158.5275 62.66 157.8675 63 157.1875 C62.34 157.1875 61.68 157.1875 61 157.1875 Z M50 167.1875 C51 169.1875 51 169.1875 51 169.1875 Z M44 174.1875 C45 176.1875 45 176.1875 45 176.1875 Z " fill="#8EB3E3" transform="translate(556,109.8125)"/>
<path d="M0 0 C2.203125 1.125 2.203125 1.125 4 3 C5.57624175 12.88490586 3.63593541 20.92715342 -2.125 28.9375 C-3.40698525 30.63236662 -4.69552353 32.32238259 -6 34 C-7.98 33.505 -7.98 33.505 -10 33 C-9.71125 33.66 -9.4225 34.32 -9.125 35 C-8.94782047 39.2523088 -10.91543844 41.15974393 -13.45703125 44.42578125 C-13.96621094 44.94527344 -14.47539062 45.46476562 -15 46 C-15.66 46 -16.32 46 -17 46 C-17.226875 46.515625 -17.45375 47.03125 -17.6875 47.5625 C-20.96075109 53.64139488 -24.7416966 57.80599193 -29.97265625 62.19921875 C-31.93818765 63.94509539 -33.6122441 65.74802004 -35.3125 67.75 C-41.6990431 75.25929154 -48.80578195 82.07585192 -56.30859375 88.45703125 C-58.23532973 90.1380331 -58.23532973 90.1380331 -60.4375 93 C-62.62625273 95.56244222 -64.53707508 97.29687965 -67.1875 99.3125 C-76.45046408 106.38687689 -82.72539911 112.35997505 -87.91894531 122.9140625 C-89.20037607 125.3866335 -90.58701164 127.78310733 -91.9921875 130.1875 C-92.5279541 131.1043457 -93.0637207 132.02119141 -93.61572266 132.96582031 C-94.6809124 134.78049373 -95.75068318 136.59248828 -96.82568359 138.40136719 C-99.95746295 143.78554424 -102.30620198 149.00067669 -104 155 C-97.61147074 150.2385736 -91.40989425 145.37614522 -85.42578125 140.11328125 C-76.76465832 132.56792295 -67.92866251 125.22592078 -59 118 C-58.1853125 117.33613281 -57.370625 116.67226563 -56.53125 115.98828125 C-53.91156454 113.93053449 -51.25869886 111.99254614 -48.5 110.125 C-47.5821875 109.48820312 -46.664375 108.85140625 -45.71875 108.1953125 C-43 107 -43 107 -40.21875 107.7421875 C-38 109 -38 109 -37 110 C-36.5359116 115.33701657 -36.5359116 115.33701657 -38.3125 117.875 C-40 119 -40 119 -43 119 C-43 119.66 -43 120.32 -43 121 C-43.66 121 -44.32 121 -45 121 C-44.78730469 121.58265625 -44.57460937 122.1653125 -44.35546875 122.765625 C-44 125 -44 125 -44.92578125 126.921875 C-45.38339844 127.52515625 -45.84101563 128.1284375 -46.3125 128.75 C-46.76238281 129.36359375 -47.21226562 129.9771875 -47.67578125 130.609375 C-48.11277344 131.06828125 -48.54976563 131.5271875 -49 132 C-49.66 132 -50.32 132 -51 132 C-51.33 133.32 -51.66 134.64 -52 136 C-52.66 136 -53.32 136 -54 136 C-54.37125 136.9590625 -54.37125 136.9590625 -54.75 137.9375 C-55.47156571 139.70533599 -56.21664409 141.46470985 -57.0234375 143.1953125 C-57.56871094 144.36707031 -57.56871094 144.36707031 -58.125 145.5625 C-58.47820312 146.30628906 -58.83140625 147.05007813 -59.1953125 147.81640625 C-60.2305221 150.23768548 -60.2305221 150.23768548 -60 154 C-54.42665405 155.20815757 -50.61272207 154.63052095 -45.4375 152.5 C-44.74567627 152.22663818 -44.05385254 151.95327637 -43.34106445 151.67163086 C-33.13115476 147.55012455 -23.48446252 142.57706705 -14.3046875 136.48046875 C-12.23249734 135.14934998 -10.28288351 133.92589052 -8 133 C-7.34 133.33 -6.68 133.66 -6 134 C-5.67 133.34 -5.34 132.68 -5 132 C-4.34 132.66 -3.68 133.32 -3 134 C-3 133.34 -3 132.68 -3 132 C-3.60328125 131.75765625 -4.2065625 131.5153125 -4.828125 131.265625 C-9.29906004 129.39071676 -12.84833717 127.83680693 -16 124 C-15.54738642 122.56068883 -15.08767021 121.12361001 -14.625 119.6875 C-14.24214844 118.48673828 -14.24214844 118.48673828 -13.8515625 117.26171875 C-13 115 -13 115 -11 112 C-10.01 112 -9.02 112 -8 112 C-8 111.34 -8 110.68 -8 110 C-6.49609375 108.66796875 -6.49609375 108.66796875 -4.4375 107.1875 C-3.44556641 106.46626953 -3.44556641 106.46626953 -2.43359375 105.73046875 C-1.63050781 105.15941406 -0.82742188 104.58835937 0 104 C0.50982422 103.61424805 1.01964844 103.22849609 1.54492188 102.83105469 C5.92117475 99.57262183 10.41952131 97.13969331 15.375 94.875 C16.12595947 94.52808105 16.87691895 94.18116211 17.65063477 93.82373047 C26.98384744 89.56746976 38.5315246 84.57248063 49 86 C52.38869677 87.72631722 54.42496065 88.98683543 56.3125 92.3125 C55.86839033 96.13184314 54.09046075 97.66481834 51.3125 100.21875 C46.66118361 103.80152073 41.01122735 108 35 108 C34.67 106.35 34.34 104.7 34 103 C35.52994792 101.76302083 37.05989583 100.52604167 38.58984375 99.2890625 C40.13266437 98.0333609 40.13266437 98.0333609 41 96 C33.59387301 93.531291 27.69012497 95.66463335 21 99 C16.43433649 101.66431293 11.97340511 104.45849672 7.8046875 107.71484375 C6 109 6 109 4 109 C3.731875 109.556875 3.46375 110.11375 3.1875 110.6875 C2 113 2 113 0.375 115.5625 C-1.24566059 117.96905979 -1.24566059 117.96905979 -1 121 C2.29960141 122.6498007 5.99127884 122.38258361 9.625 122.5625 C10.82769531 122.62727539 10.82769531 122.62727539 12.0546875 122.69335938 C14.0362511 122.79951457 16.01810271 122.90026855 18 123 C18.66 124.32 19.32 125.64 20 127 C15.3065822 130.96150079 10.21079238 134.03559041 4.97070312 137.20117188 C1.6443097 139.24114964 -1.40290292 141.27483335 -4.31640625 143.87890625 C-5.20199219 144.57886719 -6.08757812 145.27882813 -7 146 C-7.99 145.67 -8.98 145.34 -10 145 C-9.835 145.66 -9.67 146.32 -9.5 147 C-8.87816701 150.73099794 -8.93591074 154.21873378 -9 158 C9.41505494 162.00759289 25.13533259 153.42886768 41 145 C42.27327388 144.33432235 43.54670854 143.66895215 44.8203125 143.00390625 C50.794794 140.05045316 50.794794 140.05045316 56 136 C56.99 136 57.98 136 59 136 C59.24105469 135.27039063 59.48210937 134.54078125 59.73046875 133.7890625 C61.17142576 130.62339078 62.83280405 128.80051772 65.3125 126.375 C66.07175781 125.61960937 66.83101562 124.86421875 67.61328125 124.0859375 C69.96702106 122.02882284 72.30305002 120.56515662 75 119 C76.59208851 117.80322598 78.17485185 116.59398408 79.75 115.375 C91.10028418 107.06579331 105.36506632 98.18975734 119.8828125 98.62890625 C123.4900041 99.26116308 125.99367593 100.95314106 129 103 C129.8607774 112.67896365 129.8607774 112.67896365 126.8125 116.375 C119.29069767 123.39534884 119.29069767 123.39534884 114 124 C113.25 122.3125 113.25 122.3125 113 120 C113.61875 119.2575 114.2375 118.515 114.875 117.75 C117.71613677 114.07323477 117.68931807 111.58255848 118 107 C112.45976122 106.71829294 109.6510065 106.78007242 105 110 C103.453125 110.5878125 103.453125 110.5878125 101.875 111.1875 C89.12720912 116.49213629 76.58726927 128.6190961 69 140 C68.54227937 142.73872955 68.54227937 142.73872955 68.375 145.6875 C68.30023438 146.68136719 68.22546875 147.67523438 68.1484375 148.69921875 C68.07496094 149.83810547 68.07496094 149.83810547 68 151 C76.35051174 151.78695922 81.68090186 150.78239188 88.8203125 146.3125 C91 145 91 145 93 145 C93 144.34 93 143.68 93 143 C94.67789874 141.64240067 96.41943088 140.36288195 98.1875 139.125 C101.11469137 137.06381839 103.9752749 135.02038674 106.73828125 132.7421875 C109 131 109 131 111 131 C112.23828125 132.5703125 112.23828125 132.5703125 113 135 C111.83594454 137.4837173 110.66727669 139.5935767 109.1875 141.875 C106.43903781 146.18540445 104.48409057 149.80991426 104 155 C109.27302177 155.2494908 113.18798587 154.5266734 118.125 152.6875 C119.30320312 152.25824219 120.48140625 151.82898438 121.6953125 151.38671875 C124.67694382 150.1355614 127.26381977 148.70597765 130 147 C131.61026832 146.34274763 133.2206477 145.6857634 134.83203125 145.03125 C138.84264665 143.12349781 142.5644709 140.67802071 146.328125 138.328125 C149 137 149 137 152 138 C152.33 138.99 152.66 139.98 153 141 C152.32453125 141.39832031 151.6490625 141.79664063 150.953125 142.20703125 C150.06109375 142.73683594 149.1690625 143.26664063 148.25 143.8125 C147.36828125 144.33457031 146.4865625 144.85664063 145.578125 145.39453125 C143.03583954 146.92238789 143.03583954 146.92238789 140.93359375 148.5703125 C138.35991108 150.47327787 135.60245982 151.69756494 132.70703125 153.03515625 C130.8217125 153.89107469 130.8217125 153.89107469 130 156 C128.36108398 156.82202148 128.36108398 156.82202148 126.24609375 157.62109375 C125.47330078 157.91693359 124.70050781 158.21277344 123.90429688 158.51757812 C123.09025391 158.82115234 122.27621094 159.12472656 121.4375 159.4375 C120.25704102 159.88706055 120.25704102 159.88706055 119.05273438 160.34570312 C117.47371418 160.9458089 115.89239345 161.5398961 114.30883789 162.12792969 C112.80732009 162.69506743 111.31353284 163.28326713 109.82983398 163.89550781 C105.7286428 165.560719 102.5961421 166.36695148 98.1875 165.875 C97.27355469 165.78992188 96.35960937 165.70484375 95.41796875 165.6171875 C92.54049423 164.88271097 91.54480762 164.55586112 90 162 C89.75392992 159.28147949 89.86520616 156.74080806 90 154 C88.63681641 154.72316406 88.63681641 154.72316406 87.24609375 155.4609375 C76.96110336 160.70767713 65.70661519 165.05534354 54 162 C52.13671875 160.82421875 52.13671875 160.82421875 51 159 C50.70703125 156.08203125 50.70703125 156.08203125 50.8125 152.8125 C50.85310547 151.18248047 50.85310547 151.18248047 50.89453125 149.51953125 C50.92933594 148.68808594 50.96414063 147.85664063 51 147 C49.37258256 147.78668518 47.74813869 148.5795241 46.125 149.375 C45.22007812 149.81585938 44.31515625 150.25671875 43.3828125 150.7109375 C40.90465528 151.90502699 40.90465528 151.90502699 39 154 C37.47943382 154.59834554 35.93387912 155.13506656 34.375 155.625 C33.55773437 155.88539063 32.74046875 156.14578125 31.8984375 156.4140625 C31.27195312 156.60742188 30.64546875 156.80078125 30 157 C30 157.66 30 158.32 30 159 C28.1128125 159.5878125 28.1128125 159.5878125 26.1875 160.1875 C22.51031931 161.39596314 19.10425713 162.87042962 15.625 164.5625 C5.72670097 169.12671567 -7.0317818 171.3227394 -17.5625 167.8125 C-20.39942795 165.70298947 -22.24329506 164.0918007 -24 161 C-23.90846034 155.96531872 -22.39436037 152.37231025 -20 148 C-20 147.67 -20 147.34 -20 147 C-21.54280434 147.8312252 -23.08413731 148.66518102 -24.625 149.5 C-25.63175781 150.04527344 -26.63851562 150.59054687 -27.67578125 151.15234375 C-30.50872309 152.7269401 -33.29062968 154.36615464 -36.07080078 156.03125 C-45.61313166 161.68120874 -57.56050801 168.61659458 -69 166 C-72.125 164.0625 -72.125 164.0625 -74 161 C-75.10464967 154.23444302 -73.18667893 149.05766505 -70.125 143.125 C-69.76019531 142.37992188 -69.39539063 141.63484375 -69.01953125 140.8671875 C-67.48371723 137.76205079 -65.92609947 134.8891492 -64 132 C-70.03746788 134.4769099 -74.24382932 138.61910179 -79 143 C-80.26712794 144.10841697 -81.53784579 145.21274637 -82.8125 146.3125 C-85.73605589 148.85675223 -88.59016975 151.46705715 -91.42919922 154.10522461 C-95.80912956 158.16860729 -100.18415705 162.11637511 -105.0625 165.58203125 C-106.521029 166.64946275 -107.93053979 167.78435702 -109.3125 168.94921875 C-110.09625 169.60535156 -110.88 170.26148438 -111.6875 170.9375 C-112.39261719 171.54464844 -113.09773437 172.15179688 -113.82421875 172.77734375 C-116 174 -116 174 -118.76953125 173.69140625 C-119.50558594 173.46324219 -120.24164063 173.23507812 -121 173 C-122.33198664 166.47036984 -121.74457248 163.11267919 -118.5 157.375 C-117.75598613 155.98205074 -117.01250739 154.58881554 -116.26953125 153.1953125 C-115.89006348 152.49954102 -115.5105957 151.80376953 -115.11962891 151.08691406 C-113.38440844 147.85257813 -111.79306924 144.55004335 -110.1875 141.25 C-108.36469641 137.52645822 -106.51438161 134.28192968 -104 131 C-102.99092127 129.26707546 -102.01336742 127.51553632 -101.0625 125.75 C-100.5365625 124.77675781 -100.010625 123.80351562 -99.46875 122.80078125 C-98.27896171 120.53195624 -97.15653161 118.25288586 -96.0625 115.9375 C-94.06534147 111.8603133 -91.44114977 108.32278525 -88.796875 104.64453125 C-86.38379555 101.09310781 -84.40162438 97.3672712 -82.390625 93.578125 C-80.84186854 90.70683493 -79.16025442 87.96122815 -77.40234375 85.21484375 C-76.31091478 83.49105482 -75.24579673 81.75059632 -74.19140625 80.00390625 C-70.30682547 73.57503865 -66.2196725 67.4418276 -61.734375 61.41796875 C-60.32735732 59.45638329 -59.1292338 57.56224255 -58 55.4375 C-55.661611 51.41839391 -52.87185088 47.99765576 -49.90234375 44.4296875 C-47.96359011 42.06402864 -47.96359011 42.06402864 -46.53515625 39.5078125 C-44.22277598 35.73033634 -41.17541649 32.72044425 -38.15625 29.5 C-36.08945009 27.10371025 -34.59018332 24.72477693 -33 22 C-25.35143201 12.12463373 -13.30986551 -0.91792176 0 0 Z M-14.45922852 14.13037109 C-15.17393311 14.85047363 -15.8886377 15.57057617 -16.625 16.3125 C-17.35195068 17.04291504 -18.07890137 17.77333008 -18.82788086 18.52587891 C-24.20677711 24.01400664 -28.76773834 29.5765674 -33 36 C-34.16247407 37.66959364 -35.32913669 39.33627887 -36.5 41 C-37.34498047 42.21623047 -37.34498047 42.21623047 -38.20703125 43.45703125 C-40.16211717 46.22993089 -42.1727409 48.95770625 -44.1875 51.6875 C-46.34722468 54.64050816 -48.41228382 57.550316 -50.1875 60.75 C-51.60280124 63.28778153 -53.03642416 65.48795562 -54.75 67.8125 C-57.19222773 70.62205224 -57.19222773 70.62205224 -57 73 C-57.66 73 -58.32 73 -59 73 C-59.47179687 73.97839844 -59.47179687 73.97839844 -59.953125 74.9765625 C-63.87350242 82.98263446 -63.87350242 82.98263446 -66.375 86.4375 C-67.179375 87.7059375 -67.179375 87.7059375 -68 89 C-67.67 89.99 -67.34 90.98 -67 92 C-66.26885986 91.26885986 -65.53771973 90.53771973 -64.78442383 89.78442383 C-44.86254883 69.86254883 -44.86254883 69.86254883 -43.40640259 68.40713501 C-42.03703717 67.03705646 -40.67021576 65.66443671 -39.3034668 64.29174805 C-37.62675839 62.6235698 -35.91659172 60.98881894 -34.1875 59.375 C-31.66126212 57.17037709 -31.66126212 57.17037709 -32 54 C-31.39800781 53.73316406 -30.79601562 53.46632812 -30.17578125 53.19140625 C-26.6063409 51.2368653 -24.51309421 48.14136776 -22 45 C-21.41734375 44.29230469 -20.8346875 43.58460938 -20.234375 42.85546875 C-16.19243297 37.83818854 -12.95984924 32.71294431 -10 27 C-9.4225 26.01 -8.845 25.02 -8.25 24 C-6.20969287 19.10326288 -5.30523435 14.08429694 -7 9 C-10.39604363 9 -12.13718822 11.84020792 -14.45922852 14.13037109 Z M-23.625 19.5 C-24.07875 19.995 -24.5325 20.49 -25 21 C-24.67 21.66 -24.34 22.32 -24 23 C-22.68 21.35 -21.36 19.7 -20 18 C-22.12364481 17.77390663 -22.12364481 17.77390663 -23.625 19.5 Z M-34 33 C-33.67 33.99 -33.34 34.98 -33 36 C-32.67 35.01 -32.34 34.02 -32 33 C-32.66 33 -33.32 33 -34 33 Z M-13 38 C-12 40 -12 40 -12 40 Z M-25 52 C-25.33 52.66 -25.66 53.32 -26 54 C-25.34 54 -24.68 54 -24 54 C-24.33 53.34 -24.66 52.68 -25 52 Z M52 94 C52 94.99 52 95.98 52 97 C52.66 96.01 53.32 95.02 54 94 C53.34 94 52.68 94 52 94 Z M-72 98 C-72 98.99 -72 99.98 -72 101 C-71.34 100.01 -70.68 99.02 -70 98 C-70.66 98 -71.32 98 -72 98 Z M-79 105 C-78.67 105.66 -78.34 106.32 -78 107 C-77.34 106.34 -76.68 105.68 -76 105 C-76.99 105 -77.98 105 -79 105 Z M122 116 C122.33 116.66 122.66 117.32 123 118 C123.33 117.34 123.66 116.68 124 116 C123.34 116 122.68 116 122 116 Z M119 118 C119 118.66 119 119.32 119 120 C119.66 119.67 120.32 119.34 121 119 C120.34 118.67 119.68 118.34 119 118 Z M81 121 C80.34 122.32 79.68 123.64 79 125 C80.32 123.68 81.64 122.36 83 121 C82.34 121 81.68 121 81 121 Z M-65 127 C-64 129 -64 129 -64 129 Z M14 128 C15 130 15 130 15 130 Z M-3 130 C1 131 1 131 1 131 Z M-80 138 C-80 138.66 -80 139.32 -80 140 C-79.34 139.67 -78.68 139.34 -78 139 C-78.66 138.67 -79.32 138.34 -80 138 Z M-86 144 C-85 146 -85 146 -85 146 Z M-88 146 C-87.67 146.66 -87.34 147.32 -87 148 C-86.67 147.34 -86.34 146.68 -86 146 C-86.66 146 -87.32 146 -88 146 Z M27 156 C27.33 156.66 27.66 157.32 28 158 C28.66 157.34 29.32 156.68 30 156 C29.01 156 28.02 156 27 156 Z M-108 163 C-108 163.99 -108 164.98 -108 166 C-107.34 165.01 -106.68 164.02 -106 163 C-106.66 163 -107.32 163 -108 163 Z " fill="#8CB1E0" transform="translate(257,163)"/>
<path d="M0 0 C0.99234209 -0.00906435 1.98468418 -0.0181287 3.00709724 -0.02746773 C3.89390899 -0.03838416 4.78072073 -0.04930059 5.69440556 -0.06054783 C7.86380196 0.03977776 7.86380196 0.03977776 9.86380196 1.03977776 C9.86380196 2.35977776 9.86380196 3.67977776 9.86380196 5.03977776 C2.603617 9.75148963 -3.65020865 11.83802856 -12.26510429 12.71555901 C-15.07580464 12.86623785 -15.07580464 12.86623785 -17.13619804 14.03977776 C-19.00466424 14.13595629 -20.87658678 14.1677378 -22.74752617 14.16917229 C-23.92214409 14.17232445 -25.09676201 14.17547661 -26.30697441 14.17872429 C-27.58093071 14.17670006 -28.85488701 14.17467583 -30.16744804 14.17259026 C-32.12043816 14.17402534 -32.12043816 14.17402534 -34.11288261 14.17548943 C-36.87017819 14.17696469 -39.62744139 14.17481733 -42.3847332 14.17014885 C-45.92239013 14.16445165 -49.4599712 14.16773157 -52.99762535 14.17372131 C-56.36673903 14.1781997 -59.73583221 14.17506594 -63.10494804 14.17259026 C-64.37890434 14.17461449 -65.65286064 14.17663872 -66.96542168 14.17872429 C-68.1400396 14.17557213 -69.31465752 14.17241997 -70.52486992 14.16917229 C-71.56252495 14.16837669 -72.60017998 14.1675811 -73.6692791 14.1667614 C-76.13619804 14.03977776 -76.13619804 14.03977776 -78.13619804 13.03977776 C-80.81168847 12.94086523 -83.4605691 12.89993921 -86.13619804 12.90696526 C-86.92768242 12.90600853 -87.71916679 12.9050518 -88.53463554 12.90406609 C-90.20911552 12.90338517 -91.88359813 12.90523332 -93.55807304 12.90940666 C-96.1258415 12.91475618 -98.69343504 12.90945872 -101.26119804 12.90305901 C-102.88619843 12.9037198 -104.51119871 12.905001 -106.13619804 12.90696526 C-107.29248711 12.90392891 -107.29248711 12.90392891 -108.47213554 12.90083122 C-112.43334453 12.83432551 -112.43334453 12.83432551 -116.13619804 14.03977776 C-117.71410009 14.1575643 -119.29641741 14.21869399 -120.87838554 14.25071526 C-121.85235283 14.2769799 -122.82632011 14.30324455 -123.82980156 14.3303051 C-124.8796624 14.35818108 -125.92952324 14.38605705 -127.01119804 14.41477776 C-138.2364408 14.79916364 -149.09470036 16.0229996 -160.13619804 18.03977776 C-160.83068047 18.16642815 -161.52516289 18.29307854 -162.24069023 18.42356682 C-166.55504253 19.22531205 -170.84728847 20.11244596 -175.13619804 21.03977776 C-176.30151054 21.28727776 -177.46682304 21.53477776 -178.66744804 21.78977776 C-183.94381375 22.95154635 -188.91169529 24.28216864 -193.94698906 26.22337151 C-197.09688196 27.39803883 -200.29479685 28.40758586 -203.49459648 29.43675041 C-216.96842821 33.78772713 -229.92053833 38.80484397 -242.13619804 46.03977776 C-243.14811211 46.60825432 -244.16002617 47.17673088 -245.20260429 47.76243401 C-246.27381523 48.36958244 -247.34502617 48.97673088 -248.44869804 49.60227776 C-249.43483086 50.16044182 -250.42096367 50.71860588 -251.43697929 51.29368401 C-254.05868994 52.98963865 -255.97100372 54.81036156 -258.13619804 57.03977776 C-259.81070294 57.99194721 -261.48629888 58.94234418 -263.17135429 59.87571526 C-269.87248922 63.84577134 -275.44241788 69.15391779 -280.94869804 74.60227776 C-281.4999334 75.14424797 -282.05116875 75.68621819 -282.6191082 76.24461174 C-285.1910547 78.83658408 -287.43686925 81.3542642 -289.39791679 84.44212151 C-290.25836601 85.72796135 -290.25836601 85.72796135 -291.13619804 87.03977776 C-291.79619804 87.03977776 -292.45619804 87.03977776 -293.13619804 87.03977776 C-295.66661892 93.98337313 -297.22840849 100.62747319 -296.13619804 108.03977776 C-294.71575223 110.79587071 -294.71575223 110.79587071 -292.13619804 112.03977776 C-288.99138013 112.84293429 -288.99138013 112.84293429 -286.13619804 113.03977776 C-286.13619804 113.69977776 -286.13619804 114.35977776 -286.13619804 115.03977776 C-284.65119804 114.54477776 -284.65119804 114.54477776 -283.13619804 114.03977776 C-281.59451368 114.02029799 -280.05197901 114.04602702 -278.51119804 114.10227776 C-273.41948272 114.13901452 -269.02786642 113.39379156 -264.13619804 112.03977776 C-263.21709648 111.80645744 -262.29799492 111.57313713 -261.35104179 111.33274651 C-249.38952726 108.02102503 -237.67036315 102.59675807 -227.13619804 96.03977776 C-225.22013558 94.93456295 -223.30343676 93.83045083 -221.38619804 92.72727776 C-206.57247151 84.04398902 -193.10027579 73.76283571 -181.46822929 61.08665276 C-178.94066943 58.868158 -177.4417933 58.34509028 -174.13619804 58.03977776 C-177.70419959 76.86098591 -198.54689817 92.20705566 -213.51901054 102.45774651 C-216.13619804 104.03977776 -216.13619804 104.03977776 -218.13619804 104.03977776 C-218.63119804 105.52477776 -218.63119804 105.52477776 -219.13619804 107.03977776 C-220.64010429 108.14524651 -220.64010429 108.14524651 -222.69869804 109.22727776 C-223.90332695 109.8634301 -223.90332695 109.8634301 -225.13229179 110.51243401 C-226.12358086 111.01645744 -227.11486992 111.52048088 -228.13619804 112.03977776 C-228.75639824 112.356726 -229.37659843 112.67367424 -230.01559258 113.00022697 C-250.30432467 123.3470413 -275.02239781 132.78446394 -298.10494804 125.41087151 C-301.44541546 124.05911456 -304.47760864 122.48568001 -307.13619804 120.03977776 C-307.13619804 119.37977776 -307.13619804 118.71977776 -307.13619804 118.03977776 C-308.12619804 117.70977776 -309.11619804 117.37977776 -310.13619804 117.03977776 C-312.71746015 108.14463713 -311.75960994 103.0803382 -307.54635429 94.98509026 C-304.55741077 89.63507755 -301.66074563 85.21628322 -297.13619804 81.03977776 C-296.22595325 79.77922663 -295.33154854 78.50716436 -294.44869804 77.22727776 C-291.45384891 73.13149436 -287.9289044 70.2349375 -283.89401054 67.19212151 C-281.63615535 65.42997106 -279.51920358 63.61791732 -277.38619804 61.71165276 C-273.13013343 57.95821387 -268.63339145 54.63769853 -264.01119804 51.35227776 C-263.23904961 50.79733635 -262.46690117 50.24239494 -261.67135429 49.67063713 C-255.66822974 45.37027278 -249.79191725 41.28017171 -243.13619804 38.03977776 C-241.87386745 37.36214112 -240.6149563 36.67811021 -239.35885429 35.98899651 C-230.14425842 30.96325584 -220.96550038 26.72442333 -211.13619804 23.03977776 C-208.82338866 22.14474347 -206.51087493 21.24894474 -204.19869804 20.35227776 C-202.17918297 19.57799727 -200.15828921 18.80730542 -198.13619804 18.03977776 C-197.53613945 17.80186516 -196.93608086 17.56395256 -196.31783867 17.31883049 C-191.13649977 15.29963224 -185.90033289 13.83311565 -180.51119804 12.47727776 C-174.34126672 10.93548129 -174.34126672 10.93548129 -168.27291679 9.04759026 C-163.45277165 7.49890103 -158.52640386 6.51068623 -153.57369804 5.47727776 C-152.50409843 5.25330315 -151.43449883 5.02932854 -150.33248711 4.79856682 C-143.70666068 3.45247575 -137.28986115 2.4390982 -130.52682304 2.18040276 C-128.20468095 2.12576285 -128.20468095 2.12576285 -126.29932308 1.54087734 C-123.85161661 0.97385293 -121.64818611 0.90010263 -119.13557243 0.88155937 C-118.12785789 0.87177055 -117.12014336 0.86198174 -116.08189201 0.85189629 C-114.98211525 0.84614082 -113.88233849 0.84038536 -112.74923515 0.83445549 C-111.58613823 0.82455589 -110.42304131 0.8146563 -109.22469902 0.80445671 C-105.37100074 0.77281845 -101.51729036 0.74806058 -97.66354179 0.72337151 C-94.98275661 0.70278965 -92.30197686 0.68183623 -89.62119865 0.66039848 C-83.9947893 0.61614842 -78.36836398 0.57536957 -72.74191093 0.53709221 C-64.83947845 0.48333062 -56.93709879 0.42370312 -49.03471935 0.36269653 C-37.83281568 0.27649378 -26.63088902 0.19335428 -15.42892265 0.11570549 C-14.34331551 0.1079258 -13.25770836 0.1001461 -12.13920403 0.09213066 C-10.11438459 0.07839675 -8.08955141 0.06652051 -6.06470871 0.05680466 C-4.04308464 0.04505056 -2.02149565 0.0256395 0 0 Z M-250.13619804 47.03977776 C-249.13619804 49.03977776 -249.13619804 49.03977776 -249.13619804 49.03977776 Z M-183.13619804 70.03977776 C-182.13619804 72.03977776 -182.13619804 72.03977776 -182.13619804 72.03977776 Z M-284.13619804 73.03977776 C-284.13619804 74.02977776 -284.13619804 75.01977776 -284.13619804 76.03977776 C-283.47619804 75.04977776 -282.81619804 74.05977776 -282.13619804 73.03977776 C-282.79619804 73.03977776 -283.45619804 73.03977776 -284.13619804 73.03977776 Z M-212.13619804 97.03977776 C-211.80619804 97.69977776 -211.47619804 98.35977776 -211.13619804 99.03977776 C-210.47619804 98.37977776 -209.81619804 97.71977776 -209.13619804 97.03977776 C-210.12619804 97.03977776 -211.11619804 97.03977776 -212.13619804 97.03977776 Z " fill="#8EB3E3" transform="translate(312.13619804382324,109.9602222442627)"/>
<path d="M0 0 C2.203125 1.125 2.203125 1.125 4 3 C5.57624175 12.88490586 3.63593541 20.92715342 -2.125 28.9375 C-3.40698525 30.63236662 -4.69552353 32.32238259 -6 34 C-7.98 33.505 -7.98 33.505 -10 33 C-9.71125 33.66 -9.4225 34.32 -9.125 35 C-8.94782047 39.2523088 -10.91543844 41.15974393 -13.45703125 44.42578125 C-13.96621094 44.94527344 -14.47539062 45.46476562 -15 46 C-15.66 46 -16.32 46 -17 46 C-17.226875 46.515625 -17.45375 47.03125 -17.6875 47.5625 C-20.96075109 53.64139488 -24.7416966 57.80599193 -29.97265625 62.19921875 C-31.93818765 63.94509539 -33.6122441 65.74802004 -35.3125 67.75 C-41.6990431 75.25929154 -48.80578195 82.07585192 -56.30859375 88.45703125 C-58.23532973 90.1380331 -58.23532973 90.1380331 -60.4375 93 C-62.62625273 95.56244222 -64.53707508 97.29687965 -67.1875 99.3125 C-76.45046408 106.38687689 -82.72539911 112.35997505 -87.91894531 122.9140625 C-89.20037607 125.3866335 -90.58701164 127.78310733 -91.9921875 130.1875 C-92.5279541 131.1043457 -93.0637207 132.02119141 -93.61572266 132.96582031 C-94.6809124 134.78049373 -95.75068318 136.59248828 -96.82568359 138.40136719 C-99.95746295 143.78554424 -102.30620198 149.00067669 -104 155 C-97.61829651 150.2436609 -91.42089555 145.38878258 -85.4453125 140.12890625 C-82.4448799 137.51670854 -79.41296807 134.9433618 -76.375 132.375 C-75.83681641 131.91988037 -75.29863281 131.46476074 -74.74414062 130.99584961 C-73.6900218 130.10575142 -72.63438311 129.2174497 -71.57714844 128.33105469 C-70.48969816 127.41328705 -69.4100306 126.48624508 -68.33691406 125.55175781 C-64.21527533 122 -64.21527533 122 -62 122 C-62.350625 122.598125 -62.70125 123.19625 -63.0625 123.8125 C-64.33304698 126.10813214 -64.33304698 126.10813214 -63 129 C-62.67 129.66 -62.34 130.32 -62 131 C-63.134375 131.495 -64.26875 131.99 -65.4375 132.5 C-70.73814963 135.14565052 -74.70336431 138.98473692 -79 143 C-80.26617356 144.10950705 -81.53689849 145.21384529 -82.8125 146.3125 C-85.73605589 148.85675223 -88.59016975 151.46705715 -91.42919922 154.10522461 C-95.80912956 158.16860729 -100.18415705 162.11637511 -105.0625 165.58203125 C-106.521029 166.64946275 -107.93053979 167.78435702 -109.3125 168.94921875 C-110.09625 169.60535156 -110.88 170.26148438 -111.6875 170.9375 C-112.39261719 171.54464844 -113.09773437 172.15179688 -113.82421875 172.77734375 C-116 174 -116 174 -118.76953125 173.69140625 C-119.50558594 173.46324219 -120.24164063 173.23507812 -121 173 C-122.33198664 166.47036984 -121.74457248 163.11267919 -118.5 157.375 C-117.75598613 155.98205074 -117.01250739 154.58881554 -116.26953125 153.1953125 C-115.89006348 152.49954102 -115.5105957 151.80376953 -115.11962891 151.08691406 C-113.38440844 147.85257813 -111.79306924 144.55004335 -110.1875 141.25 C-108.36469641 137.52645822 -106.51438161 134.28192968 -104 131 C-102.99092127 129.26707546 -102.01336742 127.51553632 -101.0625 125.75 C-100.5365625 124.77675781 -100.010625 123.80351562 -99.46875 122.80078125 C-98.27896171 120.53195624 -97.15653161 118.25288586 -96.0625 115.9375 C-94.06534147 111.8603133 -91.44114977 108.32278525 -88.796875 104.64453125 C-86.38379555 101.09310781 -84.40162438 97.3672712 -82.390625 93.578125 C-80.84186854 90.70683493 -79.16025442 87.96122815 -77.40234375 85.21484375 C-76.31091478 83.49105482 -75.24579673 81.75059632 -74.19140625 80.00390625 C-70.30682547 73.57503865 -66.2196725 67.4418276 -61.734375 61.41796875 C-60.32735732 59.45638329 -59.1292338 57.56224255 -58 55.4375 C-55.661611 51.41839391 -52.87185088 47.99765576 -49.90234375 44.4296875 C-47.96359011 42.06402864 -47.96359011 42.06402864 -46.53515625 39.5078125 C-44.22277598 35.73033634 -41.17541649 32.72044425 -38.15625 29.5 C-36.08945009 27.10371025 -34.59018332 24.72477693 -33 22 C-25.35143201 12.12463373 -13.30986551 -0.91792176 0 0 Z M-14.45922852 14.13037109 C-15.17393311 14.85047363 -15.8886377 15.57057617 -16.625 16.3125 C-17.35195068 17.04291504 -18.07890137 17.77333008 -18.82788086 18.52587891 C-24.20677711 24.01400664 -28.76773834 29.5765674 -33 36 C-34.16247407 37.66959364 -35.32913669 39.33627887 -36.5 41 C-37.34498047 42.21623047 -37.34498047 42.21623047 -38.20703125 43.45703125 C-40.16211717 46.22993089 -42.1727409 48.95770625 -44.1875 51.6875 C-46.34722468 54.64050816 -48.41228382 57.550316 -50.1875 60.75 C-51.60280124 63.28778153 -53.03642416 65.48795562 -54.75 67.8125 C-57.19222773 70.62205224 -57.19222773 70.62205224 -57 73 C-57.66 73 -58.32 73 -59 73 C-59.47179687 73.97839844 -59.47179687 73.97839844 -59.953125 74.9765625 C-63.87350242 82.98263446 -63.87350242 82.98263446 -66.375 86.4375 C-67.179375 87.7059375 -67.179375 87.7059375 -68 89 C-67.67 89.99 -67.34 90.98 -67 92 C-66.26885986 91.26885986 -65.53771973 90.53771973 -64.78442383 89.78442383 C-44.86254883 69.86254883 -44.86254883 69.86254883 -43.40640259 68.40713501 C-42.03703717 67.03705646 -40.67021576 65.66443671 -39.3034668 64.29174805 C-37.62675839 62.6235698 -35.91659172 60.98881894 -34.1875 59.375 C-31.66126212 57.17037709 -31.66126212 57.17037709 -32 54 C-31.39800781 53.73316406 -30.79601562 53.46632812 -30.17578125 53.19140625 C-26.6063409 51.2368653 -24.51309421 48.14136776 -22 45 C-21.41734375 44.29230469 -20.8346875 43.58460938 -20.234375 42.85546875 C-16.19243297 37.83818854 -12.95984924 32.71294431 -10 27 C-9.4225 26.01 -8.845 25.02 -8.25 24 C-6.20969287 19.10326288 -5.30523435 14.08429694 -7 9 C-10.39604363 9 -12.13718822 11.84020792 -14.45922852 14.13037109 Z M-23.625 19.5 C-24.07875 19.995 -24.5325 20.49 -25 21 C-24.67 21.66 -24.34 22.32 -24 23 C-22.68 21.35 -21.36 19.7 -20 18 C-22.12364481 17.77390663 -22.12364481 17.77390663 -23.625 19.5 Z M-34 33 C-33.67 33.99 -33.34 34.98 -33 36 C-32.67 35.01 -32.34 34.02 -32 33 C-32.66 33 -33.32 33 -34 33 Z M-13 38 C-12 40 -12 40 -12 40 Z M-25 52 C-25.33 52.66 -25.66 53.32 -26 54 C-25.34 54 -24.68 54 -24 54 C-24.33 53.34 -24.66 52.68 -25 52 Z M-72 98 C-72 98.99 -72 99.98 -72 101 C-71.34 100.01 -70.68 99.02 -70 98 C-70.66 98 -71.32 98 -72 98 Z M-79 105 C-78.67 105.66 -78.34 106.32 -78 107 C-77.34 106.34 -76.68 105.68 -76 105 C-76.99 105 -77.98 105 -79 105 Z M-80 138 C-80 138.66 -80 139.32 -80 140 C-79.34 139.67 -78.68 139.34 -78 139 C-78.66 138.67 -79.32 138.34 -80 138 Z M-86 144 C-85 146 -85 146 -85 146 Z M-88 146 C-87.67 146.66 -87.34 147.32 -87 148 C-86.67 147.34 -86.34 146.68 -86 146 C-86.66 146 -87.32 146 -88 146 Z M-108 163 C-108 163.99 -108 164.98 -108 166 C-107.34 165.01 -106.68 164.02 -106 163 C-106.66 163 -107.32 163 -108 163 Z " fill="#8CB1DF" transform="translate(257,163)"/>
<path d="M0 0 C0 3.56343667 -0.94043117 5.21556567 -2.5625 8.375 C-3.11550781 9.45394531 -3.66851562 10.53289062 -4.23828125 11.64453125 C-6.46665174 15.88881119 -8.73362405 20.11068119 -11.01953125 24.32421875 C-13.36227964 28.65511791 -15.64850363 33.01552409 -17.9375 37.375 C-21.09359212 43.38063356 -24.25289455 49.38442584 -27.4375 55.375 C-28.05496094 56.53773438 -28.67242187 57.70046875 -29.30859375 58.8984375 C-30.36042957 60.82720803 -31.44492621 62.73897397 -32.578125 64.62109375 C-33.95868489 66.93087664 -35.14657403 69.26349583 -36.3125 71.6875 C-38.51354313 76.1492531 -40.99059406 80.36971958 -43.58203125 84.61328125 C-46.50797386 89.53821495 -48.98794299 94.63451464 -51 100 C-51.66 100 -52.32 100 -53 100 C-53.20625 100.763125 -53.4125 101.52625 -53.625 102.3125 C-55.19156079 106.51373122 -57.25071383 110.23079387 -59.46484375 114.12109375 C-61.0782976 117.03794686 -61.0782976 117.03794686 -62.4140625 120.38671875 C-64.12840944 124.29255846 -66.18353032 127.76687226 -68.4375 131.375 C-71.27751244 136.01451774 -73.88166479 140.56352942 -75.96875 145.59765625 C-77.40965177 148.95430242 -79.00965819 152.22442289 -80.625 155.5 C-80.92680176 156.12463135 -81.22860352 156.7492627 -81.53955078 157.39282227 C-83.76640021 161.8832001 -83.76640021 161.8832001 -86 163 C-86.83312372 164.8270257 -87.59229403 166.68808772 -88.3125 168.5625 C-90.15065688 173.13349188 -92.16930283 177.18018724 -94.88671875 181.27734375 C-96.14558718 183.1507316 -96.14558718 183.1507316 -97.4375 185.9375 C-103.44616227 197.71447804 -103.44616227 197.71447804 -108.5 200.0625 C-111.85884683 200.96219112 -114.54447497 201.2528433 -118 201 C-117.55405004 194.70621571 -115.34177197 190.22550645 -112.3125 184.75 C-111.85915283 183.91025635 -111.40580566 183.0705127 -110.9387207 182.20532227 C-109.63624917 179.79766704 -108.32049901 177.3978035 -107 175 C-106.39929688 173.90042969 -105.79859375 172.80085937 -105.1796875 171.66796875 C-104.21613973 169.90482768 -103.25016571 168.14300938 -102.28125 166.3828125 C-101.02689354 164.05001542 -99.84989036 161.69225865 -98.6875 159.3125 C-95.75929181 153.38051696 -92.46804712 147.65914213 -89.20703125 141.90625 C-86.86476665 137.77248845 -84.58760284 133.6049708 -82.3203125 129.4296875 C-79.6685151 124.54975264 -76.98396291 119.69165114 -74.19140625 114.890625 C-70.18330043 107.98386955 -66.46068765 101.01413956 -62.94140625 93.84619141 C-59.47427922 86.834852 -55.57092567 80.11475697 -51.42578125 73.48046875 C-49.96237536 71.07239498 -49.96237536 71.07239498 -49.0546875 68.61328125 C-47.71341815 65.28991385 -45.93685443 62.26899963 -44.125 59.1875 C-42.00096355 55.56533137 -39.94645563 51.945477 -38.1015625 48.171875 C-35.71726228 43.33273658 -32.97280181 38.71676233 -30.25 34.0625 C-26.34677123 27.36456417 -22.85083928 20.66477838 -19.75 13.5625 C-17.36503294 8.2409658 -15.14502884 3.85322193 -10.03125 0.73828125 C-6.53585394 -0.53216078 -3.68095505 -0.39438804 0 0 Z M-15 25 C-14.67 25.99 -14.34 26.98 -14 28 C-13.67 27.01 -13.34 26.02 -13 25 C-13.66 25 -14.32 25 -15 25 Z M-23 40 C-22 42 -22 42 -22 42 Z M-102 187 C-101.67 187.99 -101.34 188.98 -101 190 C-100.67 189.01 -100.34 188.02 -100 187 C-100.66 187 -101.32 187 -102 187 Z " fill="#8FB4E4" transform="translate(195,134)"/>
<path d="M0 0 C1.91956842 6.07863333 -0.34010625 10.55067222 -3 16 C-6.09245017 21.43748035 -9.63428006 26.61863358 -13.06054688 31.84960938 C-13.53685547 32.58115234 -14.01316406 33.31269531 -14.50390625 34.06640625 C-14.93517822 34.72584229 -15.3664502 35.38527832 -15.81079102 36.06469727 C-16.99733728 37.99566672 -18.01780973 39.95862392 -19 42 C-18.278125 41.505 -17.55625 41.01 -16.8125 40.5 C-13.85151341 38.92080715 -12.28746971 38.71821688 -9 39 C-9.33 38.01 -9.66 37.02 -10 36 C-8.0862931 34.53763907 -6.16924767 33.08005754 -4.25 31.625 C-3.44175781 31.00625 -3.44175781 31.00625 -2.6171875 30.375 C0.15308167 28.28040624 2.82450472 26.41609925 6 25 C8.21081851 24.02635231 8.21081851 24.02635231 10.25 21.75 C14.50696467 17.49303533 18.85528708 14.08682775 24 11 C25.00619755 10.09014052 26.00591552 9.17307845 27 8.25 C30 6 30 6 32.75 6.0625 C35 7 35 7 37 9 C37 14.20415915 34.88189892 16.60257036 31.5390625 20.22265625 C29.70783904 22.337394 28.44581588 24.65365451 27.13671875 27.1171875 C25.74271754 29.42615171 24.0871541 31.41717336 22.375 33.5 C19.33580328 37.29411497 17.91039755 40.24570168 17 45 C21.46127742 47.23063871 25.83752881 46.34291576 30.4296875 44.98828125 C36.1557693 42.97265203 41.58320186 40.73775841 47 38 C47.85722656 37.66871094 48.71445312 37.33742188 49.59765625 36.99609375 C52.14442075 35.94011823 54.18237824 34.64229118 56.4375 33.0625 C65.33114303 27 65.33114303 27 69 27 C69.495 28.98 69.495 28.98 70 31 C68.14786311 32.25300558 66.29318311 33.50225234 64.4375 34.75 C63.40496094 35.44609375 62.37242187 36.1421875 61.30859375 36.859375 C58.48826008 38.68410091 55.65164127 40.37450777 52.72583008 42.01757812 C51.08101188 42.95388431 49.46523198 43.94066427 47.8515625 44.9296875 C37.22613167 51.33581892 22.88098244 59.64225281 10 57 C7.4514944 56.06818808 6.28542483 55.41921773 4.75 53.1640625 C3.00427107 48.12690716 4.07849507 42.95612872 6.3046875 38.23046875 C8.54507777 34.42403454 10.75507922 31.02146816 14 28 C13.505 27.01 13.505 27.01 13 26 C12.32195313 26.49628906 11.64390625 26.99257813 10.9453125 27.50390625 C5.58942349 31.41326014 0.20912923 35.27786281 -5.23828125 39.05859375 C-7.39568817 40.57518673 -9.53534103 42.10930368 -11.66796875 43.66015625 C-12.30178467 44.11922363 -12.93560059 44.57829102 -13.58862305 45.05126953 C-14.84679481 45.96376145 -16.10225062 46.88001191 -17.35473633 47.80029297 C-21.77683823 51 -21.77683823 51 -24 51 C-24 51.66 -24 52.32 -24 53 C-25.41042956 53.84384675 -26.82864132 54.67469496 -28.25 55.5 C-29.03890625 55.9640625 -29.8278125 56.428125 -30.640625 56.90625 C-33 58 -33 58 -37 58 C-38.39304194 52.7382816 -37.55074803 50.08754052 -35.0625 45.3125 C-34.74474609 44.70164551 -34.42699219 44.09079102 -34.09960938 43.46142578 C-31.47963158 38.5674809 -28.36028986 34.16303726 -25 29.74609375 C-18.89293957 21.98431643 -18.89293957 21.98431643 -16 13 C-20.7893229 16.53729178 -25.45122002 20.15880802 -30 24 C-34.39027379 27.64071485 -38.8627951 30.52653097 -44 33 C-44.33 31.35 -44.66 29.7 -45 28 C-42.0173094 26.47551369 -39.181798 25.06059933 -36 24 C-36 23.34 -36 22.68 -36 22 C-35.01 21.67 -34.02 21.34 -33 21 C-30.86644906 20.18330183 -30.86644906 20.18330183 -29 19 C-28.67 18.01 -28.34 17.02 -28 16 C-26.824375 15.566875 -26.824375 15.566875 -25.625 15.125 C-22.8368601 14.24710116 -22.8368601 14.24710116 -21.75 11.75 C-19.48378515 8.18880524 -16.70758669 6.61967846 -13.15625 4.4296875 C-10.98727352 3.09799827 -10.98727352 3.09799827 -9.40625 1.3828125 C-6.39324342 -1.57997731 -3.76693031 -0.91628035 0 0 Z M11 23 C12 25 12 25 12 25 Z M0 32 C1 34 1 34 1 34 Z M63 32 C64 34 64 34 64 34 Z M-13 41 C-12 43 -12 43 -12 43 Z M48 41 C49 43 49 43 49 43 Z M-16 43 C-15 45 -15 45 -15 45 Z " fill="#8DB2E1" transform="translate(783,272)"/>
<path d="M0 0 C0.495 0.99 0.495 0.99 1 2 C0.67 2.66 0.34 3.32 0 4 C1.32 4.33 2.64 4.66 4 5 C2.48016736 6.37610601 0.95907486 7.75082062 -0.5625 9.125 C-1.47257812 9.94742188 -2.38265625 10.76984375 -3.3203125 11.6171875 C-5.49099551 13.54738667 -7.69189528 15.40918239 -9.9375 17.25 C-12.67979289 19.57872204 -14.20586471 21.86026325 -16 25 C-17.09432298 26.1759049 -18.19991419 27.34135944 -19.3125 28.5 C-25.15180766 35.05837315 -29.68785391 43.98139404 -30.1796875 52.8671875 C-29.73687852 58.12313761 -27.9014804 62.64777941 -25 67 C-14.17722349 71.47027725 -2.58145343 68.96664833 8 65 C21.72580086 59.12738966 35.38168344 51.37576675 47 42 C47.84433594 41.33871094 48.68867187 40.67742187 49.55859375 39.99609375 C54.52362477 36.10796548 54.52362477 36.10796548 59.15234375 31.8359375 C61 30 61 30 63.3125 28.75 C66.71019369 26.53754829 68.90589401 23.77434329 71.44921875 20.64453125 C71.96097656 20.10183594 72.47273437 19.55914062 73 19 C73.66 19 74.32 19 75 19 C75.37125 17.88625 75.37125 17.88625 75.75 16.75 C77.09147301 13.79875938 78.60905526 12.15185026 81 10 C81.99 10.33 82.98 10.66 84 11 C84.62913351 18.89276583 79.13640437 25.57221399 74.25 31.35546875 C68.0990135 38.31906078 61.39337152 44.36255422 54 50 C53.360625 50.5053125 52.72125 51.010625 52.0625 51.53125 C42.38009686 59.04345933 32.10912937 65.82201597 21 71 C19.85917969 71.60908203 19.85917969 71.60908203 18.6953125 72.23046875 C4.77264506 79.64828337 -11.62438553 84.63424609 -27.4375 81.25 C-32.74055907 79.38927752 -35.06658133 77.31183164 -38.3125 72.75 C-41.71902057 65.36920544 -41.1508162 54.62690228 -38.75 47 C-38.19727725 45.65368907 -37.61530164 44.31888568 -37 43 C-36.74476563 42.37480469 -36.48953125 41.74960938 -36.2265625 41.10546875 C-33.24660902 34.39373866 -28.47089587 28.76358583 -24 23 C-23.45472656 22.22140625 -22.90945313 21.4428125 -22.34765625 20.640625 C-21.68056641 19.82851562 -21.68056641 19.82851562 -21 19 C-20.34 19 -19.68 19 -19 19 C-18.9071875 18.13375 -18.9071875 18.13375 -18.8125 17.25 C-17.67561467 14.10170216 -15.63092771 13.01908406 -13 11 C-12.29875 10.0925 -11.5975 9.185 -10.875 8.25 C-10.25625 7.5075 -9.6375 6.765 -9 6 C-8.01 6 -7.02 6 -6 6 C-5.7525 5.38125 -5.505 4.7625 -5.25 4.125 C-3.79371361 1.64931313 -2.62187494 1.04874998 0 0 Z M48 50 C48.33 50.66 48.66 51.32 49 52 C49.66 51.34 50.32 50.68 51 50 C50.01 50 49.02 50 48 50 Z " fill="#8DB3E2" transform="translate(465,144)"/>
<path d="M0 0 C1.32 0.66 2.64 1.32 4 2 C4.36171372 7.0187778 3.34887191 9.96037913 1 14.375 C0.35484027 15.60644177 -0.28966479 16.8382267 -0.93359375 18.0703125 C-1.27245605 18.71000977 -1.61131836 19.34970703 -1.96044922 20.00878906 C-3.37187959 22.71231797 -4.70845029 25.4504182 -6.05029297 28.18896484 C-9.04509264 34.2869144 -12.16522241 40.21929391 -15.7734375 45.984375 C-17.00810832 47.94981844 -17.00810832 47.94981844 -17.94580078 49.89648438 C-19.63844091 53.27392471 -21.57696682 56.49988961 -23.5 59.75 C-23.90347656 60.44738281 -24.30695312 61.14476562 -24.72265625 61.86328125 C-25.75856429 63.61030769 -26.87337033 65.3100555 -28 67 C-28.66 67 -29.32 67 -30 67 C-30.226875 67.680625 -30.45375 68.36125 -30.6875 69.0625 C-32.05229807 72.11704807 -33.72172695 74.43764895 -35.7109375 77.1015625 C-37.0450555 79.06635447 -38.01344584 81.02991408 -39 83.1875 C-40.71512993 86.80600582 -42.75814683 88.61126609 -46 91 C-47.31165257 93.11660427 -47.31165257 93.11660427 -48 95 C-48.66 95 -49.32 95 -50 95 C-50.07476563 95.721875 -50.14953125 96.44375 -50.2265625 97.1875 C-51.20349513 100.73998228 -52.82745358 102.36176423 -55.375 105 C-58.43897853 108.19372355 -60.74570703 111.20734437 -63 115 C-64.43996968 116.72106874 -65.92128155 118.40821106 -67.4375 120.0625 C-68.19933594 120.89910156 -68.96117187 121.73570312 -69.74609375 122.59765625 C-71.79035297 124.77654606 -73.87303919 126.90210927 -76 129 C-77.375 126.4921875 -77.375 126.4921875 -78 123 C-76.45896004 119.99497208 -74.25077718 117.62321992 -72 115.125 C-70.8318432 113.77472521 -69.66517227 112.42316352 -68.5 111.0703125 C-67.91839111 110.40459229 -67.33678223 109.73887207 -66.73754883 109.05297852 C-64.46225991 106.3646401 -62.36349415 103.56509293 -60.2800293 100.72680664 C-59.16577294 99.2236338 -57.99368551 97.76367078 -56.8125 96.3125 C-54.97533545 94.0721416 -54.97533545 94.0721416 -53.64453125 91.70703125 C-51.26438103 87.78911176 -48.48597739 84.19187454 -45.7421875 80.5234375 C-43.86217357 78.05112446 -43.86217357 78.05112446 -43 75 C-42.0057802 73.99425302 -41.00473926 72.99523818 -40 72 C-36.20241323 66.54592526 -32.7345789 60.9236395 -30.01953125 54.8515625 C-29 53 -29 53 -27.08984375 50.66015625 C-24.8691898 47.83349206 -23.33493408 45.03439883 -21.75 41.8125 C-20.96882812 40.24435547 -20.96882812 40.24435547 -20.171875 38.64453125 C-18.86495473 36.17733924 -18.86495473 36.17733924 -19 34 C-19.80824219 34.51691406 -20.61648438 35.03382813 -21.44921875 35.56640625 C-22.51785156 36.22511719 -23.58648438 36.88382813 -24.6875 37.5625 C-25.74324219 38.22378906 -26.79898438 38.88507813 -27.88671875 39.56640625 C-31.27561479 41.12691421 -32.54553291 41.23862874 -36 40 C-37 39 -37 39 -37.5 36.8125 C-36.70304508 32.32962858 -33.57341543 30.57127679 -30 28 C-28.56799082 27.05413416 -27.13028846 26.11684061 -25.6875 25.1875 C-17.36989873 19.74145155 -10.69230632 13.0566868 -4.69140625 5.1640625 C-3.22535751 3.28833271 -1.72475608 1.63508986 0 0 Z M-39 77 C-38 79 -38 79 -38 79 Z M-44 84 C-43 86 -43 86 -43 86 Z M-54 97 C-54.33 97.66 -54.66 98.32 -55 99 C-54.01 99 -53.02 99 -52 99 C-52 98.34 -52 97.68 -52 97 C-52.66 97 -53.32 97 -54 97 Z M-60 104 C-59.67 105.32 -59.34 106.64 -59 108 C-58.67 106.68 -58.34 105.36 -58 104 C-58.66 104 -59.32 104 -60 104 Z " fill="#8DB2E1" transform="translate(758,147)"/>
<path d="M0 0 C0.99 0.66 1.98 1.32 3 2 C1.66249894 5.16136613 -0.22323727 7.5082136 -2.44140625 10.1015625 C-7.53208831 16.3022429 -12.32732754 22.8557138 -16 30 C-16.58007812 31.10988281 -17.16015625 32.21976562 -17.7578125 33.36328125 C-18.40236244 34.61650909 -19.04557565 35.87042526 -19.6875 37.125 C-19.9976001 37.72352783 -20.3077002 38.32205566 -20.62719727 38.9387207 C-22.3060388 42.27277117 -23.47613878 45.29804738 -24 49 C-8.64376124 50.15896142 6.75832479 39.72820254 20 33 C20.99 33.99 21.98 34.98 23 36 C17.94851268 40.28611046 12.74516779 44.1824039 6 45 C6 45.99 6 46.98 6 48 C5.43667969 48.27972656 4.87335937 48.55945313 4.29296875 48.84765625 C2.7684086 49.61383213 1.25004303 50.39246453 -0.26171875 51.18359375 C-5.0778575 53.67309542 -9.80039733 55.77992995 -14.984375 57.375 C-16.68231184 57.90149204 -18.34709165 58.53322378 -20 59.1875 C-24.08575625 60.29405899 -27.80575618 60.72474066 -32 60 C-35.0625 58.0625 -35.0625 58.0625 -37 55 C-38.87488389 45.46934025 -33.4896319 35.26239685 -28.29296875 27.42578125 C-27.183316 26.01987461 -26.04627037 24.63515277 -24.8828125 23.2734375 C-22.5531994 20.46050218 -20.53839692 17.46264777 -18.5 14.4375 C-7.32486778 -1.96520843 -7.32486778 -1.96520843 0 0 Z M-3 5 C-3.66 6.32 -4.32 7.64 -5 9 C-3.68 7.68 -2.36 6.36 -1 5 C-1.66 5 -2.32 5 -3 5 Z " fill="#8CB2E1" transform="translate(716,269)"/>
<path d="M0 0 C2.84041803 1.42020902 3.75262542 2.56414954 5.3125 5.3125 C7.29542983 13.06395299 2.83257598 23.58583127 -0.796875 30.34765625 C-2.8030138 33.60957573 -4.88504434 36.80776355 -7 40 C-8.23004681 41.99945881 -9.45926617 43.99942699 -10.6875 46 C-13.13947147 49.84363095 -15.73183343 52.81154481 -19 56 C-20.18437754 57.6331345 -21.34843106 59.28106785 -22.5 60.9375 C-27.67363518 68.22038644 -33.83165929 74.5589735 -40 81 C-40.99 80.67 -41.98 80.34 -43 80 C-43.78375 80.825 -44.5675 81.65 -45.375 82.5 C-48 85 -48 85 -50 85 C-49.67 85.99 -49.34 86.98 -49 88 C-50.65 89.32 -52.3 90.64 -54 92 C-54.66 90.68 -55.32 89.36 -56 88 C-53.52038182 85.50705054 -51.03137825 83.0300586 -48.4921875 80.59765625 C-41.2472967 73.57984412 -35.1050843 66.01477842 -29 58 C-26.99994529 55.48282088 -24.98381579 52.98007145 -22.95703125 50.484375 C-15.14161883 40.51936827 -6.49739789 28.18268867 -5.4375 15.3125 C-5.35371094 14.31863281 -5.26992188 13.32476562 -5.18359375 12.30078125 C-5.09271484 11.16189453 -5.09271484 11.16189453 -5 10 C-11.98180417 9.08932989 -16.51256518 11.80943483 -22 16 C-23.95433156 17.97290886 -25.71575906 19.98464785 -27.4296875 22.16796875 C-29.10903951 24.12721277 -30.93385749 25.46857346 -33 27 C-33.433125 27.721875 -33.86625 28.44375 -34.3125 29.1875 C-36.72662537 33.21104228 -39.85816171 36.53106621 -43 40 C-44.32 39.34 -45.64 38.68 -47 38 C-43.99826744 32.18556085 -40.33486058 27.76681405 -35.8125 23.0625 C-35.1412207 22.35810791 -34.46994141 21.65371582 -33.77832031 20.92797852 C-11.70465123 -2.05344758 -11.70465123 -2.05344758 0 0 Z M-43 35 C-42 37 -42 37 -42 37 Z M-42 77 C-41.67 77.66 -41.34 78.32 -41 79 C-40.67 78.34 -40.34 77.68 -40 77 C-40.66 77 -41.32 77 -42 77 Z " fill="#8CB1E0" transform="translate(667,182)"/>
<path d="M0 0 C1.91956842 6.07863333 -0.34010625 10.55067222 -3 16 C-6.09245017 21.43748035 -9.63428006 26.61863358 -13.06054688 31.84960938 C-13.53685547 32.58115234 -14.01316406 33.31269531 -14.50390625 34.06640625 C-14.93517822 34.72584229 -15.3664502 35.38527832 -15.81079102 36.06469727 C-16.99733728 37.99566672 -18.01780973 39.95862392 -19 42 C-17.515 41.505 -17.515 41.505 -16 41 C-15.67 42.65 -15.34 44.3 -15 46 C-16.12073862 46.83905565 -17.24674547 47.67107831 -18.375 48.5 C-19.00148438 48.9640625 -19.62796875 49.428125 -20.2734375 49.90625 C-22 51 -22 51 -24 51 C-24 51.66 -24 52.32 -24 53 C-25.41042956 53.84384675 -26.82864132 54.67469496 -28.25 55.5 C-29.03890625 55.9640625 -29.8278125 56.428125 -30.640625 56.90625 C-33 58 -33 58 -37 58 C-38.39304194 52.7382816 -37.55074803 50.08754052 -35.0625 45.3125 C-34.74474609 44.70164551 -34.42699219 44.09079102 -34.09960938 43.46142578 C-31.47963158 38.5674809 -28.36028986 34.16303726 -25 29.74609375 C-18.89293957 21.98431643 -18.89293957 21.98431643 -16 13 C-20.7893229 16.53729178 -25.45122002 20.15880802 -30 24 C-34.39027379 27.64071485 -38.8627951 30.52653097 -44 33 C-44.33 31.35 -44.66 29.7 -45 28 C-42.0173094 26.47551369 -39.181798 25.06059933 -36 24 C-36 23.34 -36 22.68 -36 22 C-35.01 21.67 -34.02 21.34 -33 21 C-30.86644906 20.18330183 -30.86644906 20.18330183 -29 19 C-28.67 18.01 -28.34 17.02 -28 16 C-26.824375 15.566875 -26.824375 15.566875 -25.625 15.125 C-22.8368601 14.24710116 -22.8368601 14.24710116 -21.75 11.75 C-19.48378515 8.18880524 -16.70758669 6.61967846 -13.15625 4.4296875 C-10.98727352 3.09799827 -10.98727352 3.09799827 -9.40625 1.3828125 C-6.39324342 -1.57997731 -3.76693031 -0.91628035 0 0 Z " fill="#8EB3E2" transform="translate(783,272)"/>
<path d="M0 0 C1.15177734 0.00451172 2.30355469 0.00902344 3.49023438 0.01367188 C6.30604518 0.02535574 9.12174398 0.04173719 11.9375 0.0625 C11.9375 0.3925 11.9375 0.7225 11.9375 1.0625 C0.5525 1.5575 0.5525 1.5575 -11.0625 2.0625 C-3.1425 2.3925 4.7775 2.7225 12.9375 3.0625 C12.9375 3.3925 12.9375 3.7225 12.9375 4.0625 C4.6875 4.0625 -3.5625 4.0625 -12.0625 4.0625 C-12.0625 4.7225 -12.0625 5.3825 -12.0625 6.0625 C-12.908125 6.17207031 -13.75375 6.28164062 -14.625 6.39453125 C-20.25940689 7.18206767 -25.55329707 7.94485566 -30.8046875 10.1640625 C-33.83788575 11.3710445 -36.94550941 12.2804142 -40.0625 13.25 C-51.138417 16.83486416 -61.65570531 22.04842564 -71.17578125 28.7578125 C-73.00624678 30.02360026 -74.86364928 31.11542434 -76.8125 32.1875 C-80.09829835 33.94049175 -80.09829835 33.94049175 -82.6875 36.375 C-85.0625 38.0625 -85.0625 38.0625 -87.875 37.8125 C-88.596875 37.565 -89.31875 37.3175 -90.0625 37.0625 C-85.89941115 28.73632229 -77.87585046 24.50300663 -70.0625 20.0625 C-69.37671875 19.65257812 -68.6909375 19.24265625 -67.984375 18.8203125 C-47.04115307 6.59011038 -24.20974814 -0.18160804 0 0 Z " fill="#89ADDB" transform="translate(555.0625,109.9375)"/>
<path d="M0 0 C0.66 0.66 1.32 1.32 2 2 C1.77261874 7.00238782 0.10985061 10.13369924 -3 14 C-5.92345808 16.36364696 -7.98441269 17.81105352 -11.6875 18.5 C-14 18 -14 18 -15.8125 16.4375 C-17.46628654 13.04288552 -17.45867983 10.73496432 -17 7 C-12.96325049 0.16857776 -7.60516258 -1.90129065 0 0 Z " fill="#8EB3E3" transform="translate(741,231)"/>
<path d="M0 0 C0.66 0 1.32 0 2 0 C1.4740625 0.8971875 1.4740625 0.8971875 0.9375 1.8125 C-0.33304698 4.10813214 -0.33304698 4.10813214 1 7 C1.33 7.66 1.66 8.32 2 9 C0.865625 9.495 -0.26875 9.99 -1.4375 10.5 C-6.73394664 13.14355273 -10.71528331 16.97700248 -15 21 C-16.42975046 22.32093759 -17.86684061 23.63399265 -19.3125 24.9375 C-19.92738281 25.50339844 -20.54226562 26.06929688 -21.17578125 26.65234375 C-23.18908526 28.13968825 -24.50841265 28.76625827 -27 29 C-27.99 28.34 -28.98 27.68 -30 27 C-28.64918632 22.94755895 -26.54800576 22.30368147 -23 20 C-21.05138548 18.28564515 -19.13547752 16.53355982 -17.25 14.75 C-12.62357582 10.42015081 -7.85939811 6.36539885 -2.86328125 2.4609375 C-1.09355456 1.13360695 -1.09355456 1.13360695 0 0 Z M-16 16 C-16 16.66 -16 17.32 -16 18 C-15.34 17.67 -14.68 17.34 -14 17 C-14.66 16.67 -15.32 16.34 -16 16 Z M-22 22 C-21 24 -21 24 -21 24 Z M-24 24 C-23.67 24.66 -23.34 25.32 -23 26 C-22.67 25.34 -22.34 24.68 -22 24 C-22.66 24 -23.32 24 -24 24 Z " fill="#7FA1CB" transform="translate(193,285)"/>
<path d="M0 0 C0.59256592 0.215354 1.18513184 0.43070801 1.7956543 0.65258789 C1.6081543 2.46508789 1.6081543 2.46508789 0.7956543 4.65258789 C-1.7043457 6.15258789 -1.7043457 6.15258789 -4.2043457 7.65258789 C-5.81477743 9.38276966 -7.29625767 11.18863641 -8.7902832 13.01977539 C-10.2043457 14.65258789 -10.2043457 14.65258789 -12.3918457 16.27758789 C-14.34799519 17.58441941 -14.34799519 17.58441941 -15.5168457 19.84008789 C-17.93097107 23.86363017 -21.06250741 27.1836541 -24.2043457 30.65258789 C-25.5243457 29.99258789 -26.8443457 29.33258789 -28.2043457 28.65258789 C-25.18060194 22.78116646 -21.45206669 18.34012977 -16.8918457 13.59008789 C-16.25311523 12.90881836 -15.61438477 12.22754883 -14.95629883 11.52563477 C-11.88692005 8.28832645 -8.75034908 5.12226193 -5.47387695 2.09399414 C-4.93996338 1.59714111 -4.4060498 1.10028809 -3.85595703 0.58837891 C-2.2043457 -0.34741211 -2.2043457 -0.34741211 0 0 Z M-24.2043457 25.65258789 C-23.2043457 27.65258789 -23.2043457 27.65258789 -23.2043457 27.65258789 Z " fill="#7391B7" transform="translate(648.204345703125,191.347412109375)"/>
<path d="M0 0 C2.475 0.495 2.475 0.495 5 1 C4.42137365 4.90572783 2.47900791 7.01060811 0 10 C-0.67095703 11.16015625 -0.67095703 11.16015625 -1.35546875 12.34375 C-3.13968837 15.22562491 -5.14872041 17.56529866 -7.4375 20.0625 C-8.19933594 20.89910156 -8.96117187 21.73570312 -9.74609375 22.59765625 C-11.79035297 24.77654606 -13.87303919 26.90210927 -16 29 C-17.37890625 26.49609375 -17.37890625 26.49609375 -18 23 C-16.4360698 19.97493681 -14.20827031 17.58107735 -11.9375 15.0625 C-10.75723034 13.70084972 -9.57882362 12.33758228 -8.40234375 10.97265625 C-7.54165283 9.98676514 -7.54165283 9.98676514 -6.66357422 8.98095703 C-4.2517572 6.10900469 -2.12860583 3.08627726 0 0 Z M0 4 C0.33 5.32 0.66 6.64 1 8 C1.33 6.68 1.66 5.36 2 4 C1.34 4 0.68 4 0 4 Z " fill="#7C9DC6" transform="translate(698,247)"/>
<path d="M0 0 C1.15177734 0.00451172 2.30355469 0.00902344 3.49023438 0.01367188 C6.30604518 0.02535574 9.12174398 0.04173719 11.9375 0.0625 C11.9375 0.3925 11.9375 0.7225 11.9375 1.0625 C4.3475 1.3925 -3.2425 1.7225 -11.0625 2.0625 C-3.1425 2.3925 4.7775 2.7225 12.9375 3.0625 C12.9375 3.3925 12.9375 3.7225 12.9375 4.0625 C4.6875 4.0625 -3.5625 4.0625 -12.0625 4.0625 C-12.0625 4.7225 -12.0625 5.3825 -12.0625 6.0625 C-13.36574219 6.24425781 -13.36574219 6.24425781 -14.6953125 6.4296875 C-15.84773437 6.59726563 -17.00015625 6.76484375 -18.1875 6.9375 C-19.32445312 7.09992188 -20.46140625 7.26234375 -21.6328125 7.4296875 C-25.0852226 7.97966187 -25.0852226 7.97966187 -28.3671875 9.1953125 C-31.0625 10.0625 -31.0625 10.0625 -33.0625 9.0625 C-33.3925 8.4025 -33.7225 7.7425 -34.0625 7.0625 C-29.84363805 1.78892256 -24.41314665 1.38768827 -18.109375 0.515625 C-12.07942818 -0.13121595 -6.05732503 -0.04543868 0 0 Z " fill="#7695BC" transform="translate(555.0625,109.9375)"/>
<path d="M0 0 C-0.56959153 3.62613199 -1.92374534 5.25517741 -4.5625 7.75 C-5.52349609 8.67039062 -5.52349609 8.67039062 -6.50390625 9.609375 C-6.99761719 10.06828125 -7.49132812 10.5271875 -8 11 C-8.99 10.67 -9.98 10.34 -11 10 C-12.175625 11.2375 -12.175625 11.2375 -13.375 12.5 C-16 15 -16 15 -18 15 C-17.67 15.99 -17.34 16.98 -17 18 C-18.65 19.32 -20.3 20.64 -22 22 C-22.66 20.68 -23.32 19.36 -24 18 C-23.2884375 17.29101562 -22.576875 16.58203125 -21.84375 15.8515625 C-19.97519327 13.98432166 -18.12537754 12.102758 -16.28125 10.2109375 C-15.3634375 9.27507812 -14.445625 8.33921875 -13.5 7.375 C-12.5821875 6.43398438 -11.664375 5.49296875 -10.71875 4.5234375 C-4.30068337 -1.43356112 -4.30068337 -1.43356112 0 0 Z M-10 7 C-9.67 7.66 -9.34 8.32 -9 9 C-8.67 8.34 -8.34 7.68 -8 7 C-8.66 7 -9.32 7 -10 7 Z " fill="#6E8BB0" transform="translate(635,252)"/>
<path d="M0 0 C0.66 0 1.32 0 2 0 C2.33 1.32 2.66 2.64 3 4 C1.29639246 5.588417 -0.41311829 7.17050381 -2.125 8.75 C-3.07632813 9.63171875 -4.02765625 10.5134375 -5.0078125 11.421875 C-7.88280295 13.89902082 -10.8046144 15.9609556 -14 18 C-15.03125 18.70125 -16.0625 19.4025 -17.125 20.125 C-19.38493066 21.59886782 -21.55696465 22.87244522 -24 24 C-24.33 22.35 -24.66 20.7 -25 19 C-22.0173094 17.47551369 -19.181798 16.06059933 -16 15 C-16 14.34 -16 13.68 -16 13 C-15.01 12.67 -14.02 12.34 -13 12 C-10.86644906 11.18330183 -10.86644906 11.18330183 -9 10 C-8.67 9.01 -8.34 8.02 -8 7 C-6.824375 6.566875 -6.824375 6.566875 -5.625 6.125 C-2.33316096 4.71421184 -1.69266155 3.06291138 0 0 Z " fill="#7593BA" transform="translate(763,281)"/>
<path d="M0 0 C0.66 0 1.32 0 2 0 C1.57838448 4.77830928 -0.57166891 7.80810554 -4 11 C-6.57541318 12.83352461 -9.27052602 14.409137 -12 16 C-14.01719153 17.30925539 -16.00666479 18.65449873 -18 20 C-18.66 18.68 -19.32 17.36 -20 16 C-17.66785852 14.79371992 -15.50357861 13.8345262 -13 13 C-13 12.01 -13 11.02 -13 10 C-10.6640625 8.02734375 -10.6640625 8.02734375 -7.625 5.9375 C-3.62244372 3.19597072 -3.62244372 3.19597072 0 0 Z M-4 7 C-3 9 -3 9 -3 9 Z M-17 16 C-16 18 -16 18 -16 18 Z " fill="#83A6D1" transform="translate(787,297)"/>
<path d="M0 0 C0.66 0.66 1.32 1.32 2 2 C-5.64257768 9.86128419 -13.32230428 17.27000352 -22 24 C-22 23.01 -22 22.02 -22 21 C-22.33 20.01 -22.66 19.02 -23 18 C-20.35715148 13.87715631 -17.1375105 11.5389269 -13 9 C-12.01 9.66 -11.02 10.32 -10 11 C-6.7 7.37 -3.4 3.74 0 0 Z M-18 15 C-17 17 -17 17 -17 17 Z " fill="#7FA1CB" transform="translate(624,262)"/>
<path d="M0 0 C0.33 0.99 0.66 1.98 1 3 C0.32453125 3.39832031 -0.3509375 3.79664063 -1.046875 4.20703125 C-1.93890625 4.73683594 -2.8309375 5.26664062 -3.75 5.8125 C-4.63171875 6.33457031 -5.5134375 6.85664063 -6.421875 7.39453125 C-8.98791169 8.91608065 -8.98791169 8.91608065 -11.078125 10.69921875 C-13 12 -13 12 -17 12 C-17 11.34 -17 10.68 -17 10 C-18.98 10.33 -20.96 10.66 -23 11 C-21.66226796 8.32453592 -19.9822121 8.12807175 -17.30859375 7.06640625 C-13.22993195 5.18235435 -9.47852401 2.70486525 -5.671875 0.328125 C-3 -1 -3 -1 0 0 Z " fill="#708DB3" transform="translate(409,301)"/>
<path d="M0 0 C0.66 0 1.32 0 2 0 C2 0.66 2 1.32 2 2 C2.66 2.33 3.32 2.66 4 3 C2.60016049 5.34503029 1.18197761 7.67471975 -0.25 10 C-0.64574219 10.66773438 -1.04148437 11.33546875 -1.44921875 12.0234375 C-2.640625 13.9375 -2.640625 13.9375 -5 17 C-6.32 17 -7.64 17 -9 17 C-9.703125 15.28125 -9.703125 15.28125 -10 13 C-8.671875 10.78125 -8.671875 10.78125 -6.75 8.5 C-6.12609375 7.7471875 -5.5021875 6.994375 -4.859375 6.21875 C-4.24578125 5.4865625 -3.6321875 4.754375 -3 4 C-2.46890625 3.2471875 -1.9378125 2.494375 -1.390625 1.71875 C-0.93171875 1.1515625 -0.4728125 0.584375 0 0 Z M-6 12 C-6.33 12.66 -6.66 13.32 -7 14 C-6.34 14 -5.68 14 -5 14 C-5.33 13.34 -5.66 12.68 -6 12 Z " fill="#82A4CF" transform="translate(619,220)"/>
<path d="M0 0 C0 0.66 0 1.32 0 2 C-0.66 2 -1.32 2 -2 2 C-1.77054688 2.58136719 -1.54109375 3.16273438 -1.3046875 3.76171875 C-1 6 -1 6 -2.2578125 7.95703125 C-4.11053391 9.7981247 -5.86010869 11.49816959 -8 13 C-10.9375 12.9375 -10.9375 12.9375 -13 12 C-13 10.68 -13 9.36 -13 8 C-10.25 6 -10.25 6 -7 4 C-6.278125 3.2575 -5.55625 2.515 -4.8125 1.75 C-3 0 -3 0 0 0 Z M-6 6 C-5 8 -5 8 -5 8 Z M-8 8 C-7.67 8.66 -7.34 9.32 -7 10 C-6.67 9.34 -6.34 8.68 -6 8 C-6.66 8 -7.32 8 -8 8 Z " fill="#6883A6" transform="translate(177,301)"/>
<path d="M0 0 C-1.3584202 3.04332765 -2.88463024 5.12309151 -5.2578125 7.453125 C-5.88300781 8.071875 -6.50820313 8.690625 -7.15234375 9.328125 C-7.80332031 9.96234375 -8.45429687 10.5965625 -9.125 11.25 C-9.78371094 11.8996875 -10.44242188 12.549375 -11.12109375 13.21875 C-12.74296643 14.81711727 -14.3693281 16.41061897 -16 18 C-16.99 17.34 -17.98 16.68 -19 16 C-16.40804932 13.32122054 -13.79952892 10.65919367 -11.1875 8 C-10.44951172 7.236875 -9.71152344 6.47375 -8.95117188 5.6875 C-8.23896484 4.965625 -7.52675781 4.24375 -6.79296875 3.5 C-6.1383667 2.8296875 -5.48376465 2.159375 -4.80932617 1.46875 C-3 0 -3 0 0 0 Z " fill="#7E9FC8" transform="translate(680,278)"/>
<path d="M0 0 C0.33 1.32 0.66 2.64 1 4 C-4.44141662 8.24430497 -7.97341559 10 -15 10 C-15.66 9.67 -16.32 9.34 -17 9 C-3.89320388 0 -3.89320388 0 0 0 Z M-6 5 C-5 7 -5 7 -5 7 Z " fill="#718EB4" transform="translate(852,299)"/>
<path d="M0 0 C0.99 0.33 1.98 0.66 3 1 C2.875 2.75 2.875 2.75 2 5 C-1.15849558 7.38641889 -4.40734291 9.34185057 -8 11 C-8.33 9.35 -8.66 7.7 -9 6 C-6.0173094 4.47551369 -3.181798 3.06059933 0 2 C0 1.34 0 0.68 0 0 Z " fill="#7593BA" transform="translate(747,294)"/>
<path d="M0 0 C11.88 0 23.76 0 36 0 C36 0.33 36 0.66 36 1 C24.12 1 12.24 1 0 1 C0 0.67 0 0.34 0 0 Z " fill="#000002" transform="translate(198,123)"/>
<path d="M0 0 C11.55 0 23.1 0 35 0 C35 0.33 35 0.66 35 1 C23.45 1 11.9 1 0 1 C0 0.67 0 0.34 0 0 Z " fill="#000002" transform="translate(1080,379)"/>
<path d="M0 0 C0.99 0.33 1.98 0.66 3 1 C3.33 1.99 3.66 2.98 4 4 C-1.41538462 8.06153846 -1.41538462 8.06153846 -4.375 7.75 C-4.91125 7.5025 -5.4475 7.255 -6 7 C-5.34 7 -4.68 7 -4 7 C-3.71125 6.21625 -3.4225 5.4325 -3.125 4.625 C-2 2 -2 2 0 0 Z " fill="#7594BB" transform="translate(406,300)"/>
<path d="M0 0 C-0.4793247 4.31392226 -1.7457985 6.16569547 -5 9 C-5 8.34 -5 7.68 -5 7 C-5.99 7.33 -6.98 7.66 -8 8 C-8 7.01 -8 6.02 -8 5 C-2.65116279 0 -2.65116279 0 0 0 Z " fill="#6D89AD" transform="translate(789,297)"/>
<path d="M0 0 C-1.4333056 5.01656959 -3.90563952 7.01452882 -8 10 C-8.66 10 -9.32 10 -10 10 C-8.50006099 6.10015857 -4.53875449 0 0 0 Z " fill="#81A2CD" transform="translate(638,244)"/>
<path d="M0 0 C2.3125 1.375 2.3125 1.375 4 3 C-0.39453125 7.00390625 -0.39453125 7.00390625 -2 8 C-2.99 7.67 -3.98 7.34 -5 7 C-4.01 6.01 -3.02 5.02 -2 4 C-2.99 3.34 -3.98 2.68 -5 2 C-2.75 0.8125 -2.75 0.8125 0 0 Z " fill="#89ADDB" transform="translate(180,298)"/>
<path d="M0 0 C0.66 0.66 1.32 1.32 2 2 C-3.625 6.875 -3.625 6.875 -7 8 C-7.33 6.68 -7.66 5.36 -8 4 C-5.35261084 2.5393715 -4.10551666 2 -1 2 C-0.67 1.34 -0.34 0.68 0 0 Z M-5 4 C-4 6 -4 6 -4 6 Z " fill="#728FB5" transform="translate(775,309)"/>
<path d="M0 0 C1.65 0.33 3.3 0.66 5 1 C1.375 5.875 1.375 5.875 -2 7 C-2.66 5.68 -3.32 4.36 -4 3 C-2.68 2.34 -1.36 1.68 0 1 C0 0.67 0 0.34 0 0 Z " fill="#7898C0" transform="translate(412,296)"/>
<path d="M0 0 C-5.625 4.875 -5.625 4.875 -9 6 C-9 4.35 -9 2.7 -9 1 C-2.25 -1.125 -2.25 -1.125 0 0 Z " fill="#80A2CC" transform="translate(759,291)"/>
<path d="M0 0 C2.31 0.33 4.62 0.66 7 1 C7 1.66 7 2.32 7 3 C4.64561267 4.42944945 3.51967567 5.08661261 0.75 4.625 C0.1725 4.41875 -0.405 4.2125 -1 4 C-0.67 2.68 -0.34 1.36 0 0 Z " fill="#7593BA" transform="translate(371,282)"/>
<path d="M0 0 C0.33 0 0.66 0 1 0 C1 5.28 1 10.56 1 16 C0.67 16 0.34 16 0 16 C0 10.72 0 5.44 0 0 Z " fill="#000002" transform="translate(1070,77)"/>
<path d="M0 0 C0.99 0 1.98 0 3 0 C3 0.99 3 1.98 3 3 C1.35 3.66 -0.3 4.32 -2 5 C-1.34 3.35 -0.68 1.7 0 0 Z " fill="#7898C0" transform="translate(855,297)"/>
<path d="M0 0 C4.29 0 8.58 0 13 0 C13 0.33 13 0.66 13 1 C8.71 1 4.42 1 0 1 C0 0.67 0 0.34 0 0 Z " fill="#000002" transform="translate(1023,380)"/>
<path d="M0 0 C3.63 0 7.26 0 11 0 C11 0.33 11 0.66 11 1 C7.37 1 3.74 1 0 1 C0 0.67 0 0.34 0 0 Z " fill="#000002" transform="translate(600,326)"/>
<path d="M0 0 C2.97 0 5.94 0 9 0 C9 0.33 9 0.66 9 1 C6.03 1 3.06 1 0 1 C0 0.67 0 0.34 0 0 Z " fill="#000002" transform="translate(317,326)"/>
<path d="M0 0 C0.33 0 0.66 0 1 0 C1 2.97 1 5.94 1 9 C0.67 9 0.34 9 0 9 C0 6.03 0 3.06 0 0 Z " fill="#000002" transform="translate(262,168)"/>
<path d="M0 0 C2.31 0 4.62 0 7 0 C7 0.33 7 0.66 7 1 C4.69 1 2.38 1 0 1 C0 0.67 0 0.34 0 0 Z " fill="#000002" transform="translate(352,329)"/>
<path d="M0 0 C0.33 0 0.66 0 1 0 C1 2.31 1 4.62 1 7 C0.67 7 0.34 7 0 7 C0 4.69 0 2.38 0 0 Z " fill="#000002" transform="translate(387,268)"/>
<path d="M0 0 C2.31 0 4.62 0 7 0 C7 0.33 7 0.66 7 1 C4.69 1 2.38 1 0 1 C0 0.67 0 0.34 0 0 Z " fill="#000002" transform="translate(297,123)"/>
<path d="M0 0 C1.98 0 3.96 0 6 0 C6 0.33 6 0.66 6 1 C4.02 1 2.04 1 0 1 C0 0.67 0 0.34 0 0 Z " fill="#000002" transform="translate(367,270)"/>
<path d="M0 0 C0.33 0 0.66 0 1 0 C1 1.65 1 3.3 1 5 C0.67 5 0.34 5 0 5 C0 3.35 0 1.7 0 0 Z " fill="#000002" transform="translate(435,194)"/>
<path d="M0 0 C0.33 0 0.66 0 1 0 C1 1.65 1 3.3 1 5 C0.67 5 0.34 5 0 5 C0 3.35 0 1.7 0 0 Z " fill="#000002" transform="translate(763,149)"/>
<path d="M0 0 C1.65 0 3.3 0 5 0 C5 0.33 5 0.66 5 1 C3.35 1 1.7 1 0 1 C0 0.67 0 0.34 0 0 Z " fill="#000002" transform="translate(163,126)"/>
<path d="M0 0 C4 1 4 1 4 1 Z " fill="#000002" transform="translate(1117,379)"/>
<path d="M0 0 C4 1 4 1 4 1 Z " fill="#000002" transform="translate(532,321)"/>
<path d="M0 0 C4 1 4 1 4 1 Z " fill="#000002" transform="translate(521,321)"/>
<path d="M0 0 C1 4 1 4 1 4 Z " fill="#000002" transform="translate(1107,313)"/>
<path d="M0 0 C0 3 0 3 0 3 Z " fill="#6E8AAE" transform="translate(216,282)"/>
<path d="M0 0 C1 4 1 4 1 4 Z " fill="#000002" transform="translate(1107,264)"/>
<path d="M0 0 C1 4 1 4 1 4 Z " fill="#000002" transform="translate(1054,143)"/>
<path d="M0 0 C4 1 4 1 4 1 Z " fill="#000002" transform="translate(124,134)"/>
<path d="M0 0 C3 1 3 1 3 1 Z " fill="#000002" transform="translate(961,380)"/>
<path d="M0 0 C3 1 3 1 3 1 Z " fill="#000002" transform="translate(746,331)"/>
<path d="M0 0 C0.99 0.495 0.99 0.495 2 1 C1.01 1.495 1.01 1.495 0 2 C0 1.34 0 0.68 0 0 Z " fill="#7998C0" transform="translate(248,309)"/>
<path d="" fill="#000002" transform="translate(0,0)"/>
<path d="" fill="#000002" transform="translate(0,0)"/>
<path d="" fill="#000002" transform="translate(0,0)"/>
<path d="M0 0 C0.99 0.495 0.99 0.495 2 1 C1.01 1.495 1.01 1.495 0 2 C0 1.34 0 0.68 0 0 Z " fill="#60799A" transform="translate(213,285)"/>
<path d="" fill="#000002" transform="translate(0,0)"/>
<path d="M0 0 C3 1 3 1 3 1 Z " fill="#000002" transform="translate(51,235)"/>
<path d="M0 0 C0.99 0.495 0.99 0.495 2 1 C1.01 1.495 1.01 1.495 0 2 C0 1.34 0 0.68 0 0 Z " fill="#60799A" transform="translate(248,197)"/>
<path d="M0 0 C3 1 3 1 3 1 Z " fill="#000002" transform="translate(530,118)"/>
<path d="" fill="#000002" transform="translate(0,0)"/>
<path d="M0 0 C2 1 2 1 2 1 Z " fill="#000002" transform="translate(951,379)"/>
<path d="M0 0 C2 1 2 1 2 1 Z " fill="#000002" transform="translate(1208,378)"/>
<path d="M0 0 C2 1 2 1 2 1 Z " fill="#000002" transform="translate(1196,378)"/>
<path d="M0 0 C2 1 2 1 2 1 Z " fill="#000002" transform="translate(1183,378)"/>
<path d="M0 0 C2 1 2 1 2 1 Z " fill="#000002" transform="translate(1172,378)"/>
<path d="M0 0 C2 1 2 1 2 1 Z " fill="#000002" transform="translate(1270,374)"/>
<path d="M0 0 C2 1 2 1 2 1 Z " fill="#000002" transform="translate(84,334)"/>
<path d="" fill="#000002" transform="translate(0,0)"/>
<path d="M0 0 C2 1 2 1 2 1 Z " fill="#000002" transform="translate(254,332)"/>
<path d="M0 0 C2 1 2 1 2 1 Z " fill="#000002" transform="translate(245,332)"/>
<path d="M0 0 C2 1 2 1 2 1 Z " fill="#000002" transform="translate(260,331)"/>
<path d="" fill="#000002" transform="translate(0,0)"/>
<path d="M0 0 C2 1 2 1 2 1 Z " fill="#000002" transform="translate(811,326)"/>
<path d="M0 0 C2 1 2 1 2 1 Z " fill="#000002" transform="translate(701,326)"/>
<path d="M0 0 C2 1 2 1 2 1 Z " fill="#000002" transform="translate(369,326)"/>
<path d="M0 0 C2 1 2 1 2 1 Z " fill="#000002" transform="translate(275,326)"/>
<path d="M0 0 C2 1 2 1 2 1 Z " fill="#000002" transform="translate(205,326)"/>
<path d="M0 0 C2 1 2 1 2 1 Z " fill="#000002" transform="translate(622,323)"/>
<path d="M0 0 C2 1 2 1 2 1 Z " fill="#000002" transform="translate(627,321)"/>
<path d="M0 0 C2 1 2 1 2 1 Z " fill="#000002" transform="translate(546,318)"/>
<path d="" fill="#000002" transform="translate(0,0)"/>
<path d="" fill="#000002" transform="translate(0,0)"/>
<path d="" fill="#000002" transform="translate(0,0)"/>
<path d="" fill="#000002" transform="translate(0,0)"/>
<path d="" fill="#000002" transform="translate(0,0)"/>
<path d="M0 0 C2 1 2 1 2 1 Z " fill="#000002" transform="translate(284,259)"/>
<path d="" fill="#000002" transform="translate(0,0)"/>
<path d="" fill="#000002" transform="translate(0,0)"/>
<path d="M0 0 C2 1 2 1 2 1 Z " fill="#000002" transform="translate(12,235)"/>
<path d="M0 0 C2 1 2 1 2 1 Z " fill="#000002" transform="translate(470,222)"/>
<path d="" fill="#000002" transform="translate(0,0)"/>
<path d="M0 0 C2 1 2 1 2 1 Z " fill="#000002" transform="translate(87,147)"/>
<path d="M0 0 C2 1 2 1 2 1 Z " fill="#000002" transform="translate(137,131)"/>
<path d="" fill="#000002" transform="translate(0,0)"/>
<path d="" fill="#000002" transform="translate(0,0)"/>
<path d="" fill="#000002" transform="translate(0,0)"/>
<path d="" fill="#000002" transform="translate(0,0)"/>
<path d="" fill="#000002" transform="translate(0,0)"/>
<path d="" fill="#000002" transform="translate(0,0)"/>
<path d="" fill="#000002" transform="translate(0,0)"/>
<path d="" fill="#000002" transform="translate(0,0)"/>
<path d="" fill="#000002" transform="translate(0,0)"/>
<path d="" fill="#000002" transform="translate(0,0)"/>
<path d="" fill="#000002" transform="translate(0,0)"/>
<path d="" fill="#000002" transform="translate(0,0)"/>
<path d="" fill="#000002" transform="translate(0,0)"/>
<path d="" fill="#000002" transform="translate(0,0)"/>
<path d="" fill="#000002" transform="translate(0,0)"/>
<path d="" fill="#000002" transform="translate(0,0)"/>
<path d="" fill="#000002" transform="translate(0,0)"/>
<path d="" fill="#000002" transform="translate(0,0)"/>
<path d="" fill="#000002" transform="translate(0,0)"/>
<path d="" fill="#90B6E6" transform="translate(0,0)"/>
<path d="" fill="#000002" transform="translate(0,0)"/>
<path d="" fill="#000002" transform="translate(0,0)"/>
<path d="" fill="#000002" transform="translate(0,0)"/>
<path d="" fill="#90B6E6" transform="translate(0,0)"/>
<path d="" fill="#4C5E76" transform="translate(0,0)"/>
<path d="" fill="#000002" transform="translate(0,0)"/>
<path d="" fill="#000002" transform="translate(0,0)"/>
<path d="" fill="#000002" transform="translate(0,0)"/>
<path d="" fill="#000002" transform="translate(0,0)"/>
<path d="" fill="#000002" transform="translate(0,0)"/>
<path d="" fill="#000002" transform="translate(0,0)"/>
<path d="" fill="#4C5E76" transform="translate(0,0)"/>
<path d="" fill="#000002" transform="translate(0,0)"/>
<path d="" fill="#90B6E6" transform="translate(0,0)"/>
<path d="" fill="#000002" transform="translate(0,0)"/>
<path d="" fill="#90B6E6" transform="translate(0,0)"/>
<path d="" fill="#90B6E6" transform="translate(0,0)"/>
<path d="" fill="#000002" transform="translate(0,0)"/>
<path d="" fill="#4C5E76" transform="translate(0,0)"/>
<path d="" fill="#000002" transform="translate(0,0)"/>
<path d="" fill="#000002" transform="translate(0,0)"/>
<path d="" fill="#000002" transform="translate(0,0)"/>
<path d="" fill="#4C5E76" transform="translate(0,0)"/>
<path d="" fill="#4C5E76" transform="translate(0,0)"/>
<path d="" fill="#4C5E76" transform="translate(0,0)"/>
<path d="" fill="#4C5E76" transform="translate(0,0)"/>
<path d="" fill="#4C5E76" transform="translate(0,0)"/>
<path d="" fill="#000002" transform="translate(0,0)"/>
<path d="" fill="#000002" transform="translate(0,0)"/>
<path d="" fill="#000002" transform="translate(0,0)"/>
<path d="" fill="#90B6E6" transform="translate(0,0)"/>
<path d="" fill="#000002" transform="translate(0,0)"/>
<path d="" fill="#000002" transform="translate(0,0)"/>
<path d="" fill="#000002" transform="translate(0,0)"/>
<path d="" fill="#000002" transform="translate(0,0)"/>
<path d="" fill="#000002" transform="translate(0,0)"/>
<path d="" fill="#000002" transform="translate(0,0)"/>
<path d="" fill="#000002" transform="translate(0,0)"/>
<path d="" fill="#000002" transform="translate(0,0)"/>
<path d="" fill="#000002" transform="translate(0,0)"/>
<path d="" fill="#000002" transform="translate(0,0)"/>
<path d="" fill="#000002" transform="translate(0,0)"/>
<path d="" fill="#000002" transform="translate(0,0)"/>
<path d="" fill="#000002" transform="translate(0,0)"/>
<path d="" fill="#000002" transform="translate(0,0)"/>
<path d="" fill="#000002" transform="translate(0,0)"/>
<path d="" fill="#000002" transform="translate(0,0)"/>
<path d="" fill="#000002" transform="translate(0,0)"/>
<path d="" fill="#90B6E6" transform="translate(0,0)"/>
<path d="" fill="#000002" transform="translate(0,0)"/>
<path d="" fill="#000002" transform="translate(0,0)"/>
<path d="" fill="#000002" transform="translate(0,0)"/>
<path d="" fill="#000002" transform="translate(0,0)"/>
<path d="" fill="#000002" transform="translate(0,0)"/>
<path d="" fill="#000002" transform="translate(0,0)"/>
<path d="" fill="#000002" transform="translate(0,0)"/>
<path d="" fill="#000002" transform="translate(0,0)"/>
<path d="" fill="#000002" transform="translate(0,0)"/>
<path d="" fill="#000002" transform="translate(0,0)"/>
<path d="" fill="#000002" transform="translate(0,0)"/>
<path d="" fill="#000002" transform="translate(0,0)"/>
<path d="" fill="#000002" transform="translate(0,0)"/>
<path d="" fill="#000002" transform="translate(0,0)"/>
<path d="" fill="#000002" transform="translate(0,0)"/>
<path d="" fill="#000002" transform="translate(0,0)"/>
<path d="" fill="#000002" transform="translate(0,0)"/>
<path d="" fill="#000002" transform="translate(0,0)"/>
<path d="" fill="#000002" transform="translate(0,0)"/>
<path d="" fill="#000002" transform="translate(0,0)"/>
<path d="" fill="#000002" transform="translate(0,0)"/>
<path d="" fill="#000002" transform="translate(0,0)"/>
<path d="" fill="#000002" transform="translate(0,0)"/>
<path d="" fill="#000002" transform="translate(0,0)"/>
<path d="" fill="#000002" transform="translate(0,0)"/>
<path d="" fill="#000002" transform="translate(0,0)"/>
<path d="" fill="#000002" transform="translate(0,0)"/>
<path d="" fill="#000002" transform="translate(0,0)"/>
<path d="" fill="#000002" transform="translate(0,0)"/>
<path d="" fill="#000002" transform="translate(0,0)"/>
<path d="" fill="#000002" transform="translate(0,0)"/>
<path d="" fill="#000002" transform="translate(0,0)"/>
<path d="" fill="#000002" transform="translate(0,0)"/>
<path d="" fill="#000002" transform="translate(0,0)"/>
<path d="" fill="#000002" transform="translate(0,0)"/>
<path d="" fill="#000002" transform="translate(0,0)"/>
<path d="" fill="#000002" transform="translate(0,0)"/>
<path d="" fill="#000002" transform="translate(0,0)"/>
<path d="" fill="#000002" transform="translate(0,0)"/>
<path d="" fill="#000002" transform="translate(0,0)"/>
<path d="" fill="#4C5E76" transform="translate(0,0)"/>
<path d="" fill="#000002" transform="translate(0,0)"/>
<path d="" fill="#000002" transform="translate(0,0)"/>
<path d="" fill="#000002" transform="translate(0,0)"/>
<path d="" fill="#000002" transform="translate(0,0)"/>
<path d="" fill="#000002" transform="translate(0,0)"/>
<path d="" fill="#000002" transform="translate(0,0)"/>
<path d="" fill="#000002" transform="translate(0,0)"/>
<path d="" fill="#000002" transform="translate(0,0)"/>
<path d="" fill="#000002" transform="translate(0,0)"/>
<path d="" fill="#000002" transform="translate(0,0)"/>
<path d="" fill="#000002" transform="translate(0,0)"/>
<path d="" fill="#000002" transform="translate(0,0)"/>
<path d="" fill="#000002" transform="translate(0,0)"/>
<path d="" fill="#000002" transform="translate(0,0)"/>
<path d="" fill="#000002" transform="translate(0,0)"/>
</svg>
